<?xml version="1.0" standalone="no"?>
<!DOCTYPE svg PUBLIC "-//W3C//DTD SVG 1.1//EN" "http://www.w3.org/Graphics/SVG/1.1/DTD/svg11.dtd" >
<svg xmlns="http://www.w3.org/2000/svg" xmlns:xlink="http://www.w3.org/1999/xlink" version="1.1">
<metadata>
Created by FontForge 20150824 at Wed Apr  6 22:56:31 2016
 By Everything Fonts
Copyright (c) 2011, Joe Prince, Admix Designs (http://www.admixdesigns.com/) with Reserved Font Name Varela Round.
</metadata>
<defs>
<font id="VarelaRound" horiz-adv-x="628" >
  <font-face 
    font-family="Varela Round"
    font-weight="400"
    font-stretch="normal"
    units-per-em="1000"
    panose-1="2 0 0 0 0 0 0 0 0 0"
    ascent="800"
    descent="-200"
    x-height="510"
    cap-height="703"
    bbox="-140 -286 988 918"
    underline-thickness="50"
    underline-position="-100"
    unicode-range="U+0020-FB06"
  />
<missing-glyph horiz-adv-x="514" 
d="M441 698c29 0 53 -24 53 -53v-593c0 -29 -24 -52 -53 -52h-369c-29 0 -52 23 -52 52v593c0 29 23 53 52 53h369zM444 96v506l-158 -253zM413 648h-313l157 -251zM70 96l157 253l-157 253v-506zM100 50h313l-156 252z" />
    <glyph glyph-name="f_f" unicode="ff" horiz-adv-x="774" 
d="M684 653c-50 0 -82 -17 -82 -88v-55h125c22 0 39 -17 39 -39s-17 -39 -39 -39h-125v-392c0 -25 -20 -45 -46 -45c-25 0 -45 20 -45 45v392h-303v-392c0 -25 -20 -45 -46 -45c-25 0 -45 20 -45 45v392h-59c-22 0 -39 17 -39 39s17 39 39 39h59v58c0 126 79 172 150 172
c33 0 63 -8 87 -20c12 -6 23 -19 23 -35c0 -19 -16 -38 -37 -38c-16 0 -31 6 -50 6c-50 0 -82 -17 -82 -88v-55h303v58c0 126 79 172 150 172c33 0 63 -8 87 -20c12 -6 23 -19 23 -35c0 -19 -16 -38 -37 -38c-16 0 -31 6 -50 6z" />
    <glyph glyph-name="f_j" unicode="fj" horiz-adv-x="641" 
d="M290 653c-50 0 -82 -17 -82 -88v-55h307c25 -2 43 -21 43 -46v-567c0 -77 -35 -137 -131 -137c-24 0 -45 3 -63 9c-16 5 -26 19 -26 36c0 20 16 38 38 38c9 0 18 -3 30 -3c35 0 61 5 61 59v533h-259v-392c0 -25 -20 -45 -46 -45c-25 0 -45 20 -45 45v392h-59
c-22 0 -39 17 -39 39s17 39 39 39h59v58c0 126 79 172 150 172c33 0 63 -8 87 -20c12 -6 23 -19 23 -35c0 -19 -16 -38 -37 -38c-16 0 -31 6 -50 6zM567 669v-4c0 -28 -23 -51 -51 -51h-6c-28 0 -51 23 -51 51v4c0 28 23 51 51 51h6c28 0 51 -23 51 -51z" />
    <glyph glyph-name="fi" unicode="fi" horiz-adv-x="641" 
d="M208 510h307c25 -2 43 -21 43 -46v-424c0 -25 -20 -45 -46 -45c-25 0 -45 20 -45 45v392h-259v-392c0 -25 -20 -45 -46 -45c-25 0 -45 20 -45 45v392h-59c-22 0 -39 17 -39 39s17 39 39 39h59v58c0 126 79 172 150 172c33 0 63 -8 87 -20c12 -6 23 -19 23 -35
c0 -19 -16 -38 -37 -38c-16 0 -31 6 -50 6c-50 0 -82 -17 -82 -88v-55zM567 669v-4c0 -28 -23 -51 -51 -51h-6c-28 0 -51 23 -51 51v4c0 28 23 51 51 51h6c28 0 51 -23 51 -51z" />
    <glyph glyph-name="fl" unicode="fl" horiz-adv-x="644" 
d="M290 653c-50 0 -82 -17 -82 -88v-55h125c22 0 39 -17 39 -39s-17 -39 -39 -39h-125v-392c0 -25 -20 -45 -46 -45c-25 0 -45 20 -45 45v392h-59c-22 0 -39 17 -39 39s17 39 39 39h59v58c0 126 79 172 150 172c33 0 63 -8 87 -20c12 -6 23 -19 23 -35
c0 -19 -16 -38 -37 -38c-16 0 -31 6 -50 6zM511 735c26 0 46 -20 46 -46v-649c0 -25 -20 -45 -46 -45c-25 0 -45 20 -45 45v649c0 26 20 46 45 46z" />
    <glyph glyph-name="f_f_i" unicode="ffi" horiz-adv-x="1035" 
d="M906 510c26 0 46 -20 46 -46v-424c0 -25 -20 -45 -46 -45c-25 0 -45 20 -45 45v392h-259v-392c0 -25 -20 -45 -46 -45c-25 0 -45 20 -45 45v392h-303v-392c0 -25 -20 -45 -46 -45c-25 0 -45 20 -45 45v392h-59c-22 0 -39 17 -39 39s17 39 39 39h59v58
c0 126 79 172 150 172c33 0 63 -8 87 -20c12 -6 23 -19 23 -35c0 -19 -16 -38 -37 -38c-16 0 -31 6 -50 6c-50 0 -82 -17 -82 -88v-55h303v58c0 126 79 172 150 172c33 0 63 -8 87 -20c12 -6 23 -19 23 -35c0 -19 -16 -38 -37 -38c-16 0 -31 6 -50 6c-50 0 -82 -17 -82 -88
v-55h304zM961 669v-4c0 -28 -23 -51 -51 -51h-6c-28 0 -51 23 -51 51v4c0 28 23 51 51 51h6c28 0 51 -23 51 -51z" />
    <glyph glyph-name="f_f_l" unicode="ffl" horiz-adv-x="1038" 
d="M905 735c26 0 46 -20 46 -46v-649c0 -25 -20 -45 -46 -45c-25 0 -45 20 -45 45v649c0 26 20 46 45 46zM684 653c-50 0 -82 -17 -82 -88v-55h125c22 0 39 -17 39 -39s-17 -39 -39 -39h-125v-392c0 -25 -20 -45 -46 -45c-25 0 -45 20 -45 45v392h-303v-392
c0 -25 -20 -45 -46 -45c-25 0 -45 20 -45 45v392h-59c-22 0 -39 17 -39 39s17 39 39 39h59v58c0 126 79 172 150 172c33 0 63 -8 87 -20c12 -6 23 -19 23 -35c0 -19 -16 -38 -37 -38c-16 0 -31 6 -50 6c-50 0 -82 -17 -82 -88v-55h303v58c0 126 79 172 150 172
c33 0 63 -8 87 -20c12 -6 23 -19 23 -35c0 -19 -16 -38 -37 -38c-16 0 -31 6 -50 6z" />
    <glyph glyph-name=".notdef" horiz-adv-x="514" 
d="M441 698c29 0 53 -24 53 -53v-593c0 -29 -24 -52 -53 -52h-369c-29 0 -52 23 -52 52v593c0 29 23 53 52 53h369zM444 96v506l-158 -253zM413 648h-313l157 -251zM70 96l157 253l-157 253v-506zM100 50h313l-156 252z" />
    <glyph glyph-name="space" unicode=" " horiz-adv-x="260" 
 />
    <glyph glyph-name="exclam" unicode="!" horiz-adv-x="281" 
d="M141 193c-21 0 -33 12 -34 29l-18 330v99c0 29 23 52 52 52s51 -23 51 -52v-99l-18 -330c-1 -17 -12 -29 -33 -29zM141 115c33 0 60 -27 60 -59c0 -33 -27 -60 -60 -60c-32 0 -59 27 -59 60c0 32 27 59 59 59z" />
    <glyph glyph-name="quotedbl" unicode="&#x22;" horiz-adv-x="411" 
d="M60 697c1 28 24 50 51 50s50 -22 51 -50c3 -57 -13 -136 -22 -180c-3 -13 -13 -25 -29 -25s-26 12 -29 25c-9 44 -25 123 -22 180zM249 697c1 28 24 50 51 50s50 -22 51 -50c3 -57 -13 -136 -22 -180c-3 -13 -13 -25 -29 -25s-26 12 -29 25c-9 44 -25 123 -22 180z" />
    <glyph glyph-name="numbersign" unicode="#" horiz-adv-x="612" 
d="M540 474c19 0 35 -16 35 -35s-16 -35 -35 -35h-88l-24 -152h1h76c19 0 35 -16 35 -35s-16 -35 -35 -35h-88l-25 -158c-3 -15 -17 -29 -35 -29s-35 15 -35 35c0 2 0 4 24 152h-127l-25 -158c-3 -15 -17 -29 -35 -29s-35 15 -35 35c0 2 0 4 24 152h-77c-19 0 -35 16 -35 35
s16 35 35 35h88l24 152h-77c-19 0 -35 16 -35 35s16 35 35 35h88l25 158c2 15 16 28 35 28c21 0 35 -15 35 -35c0 -3 0 -7 -24 -151h127l25 158c2 15 16 28 35 28c21 0 35 -15 35 -35c0 -3 0 -7 -24 -151h77zM357 252l24 152h-127l-24 -152h127z" />
    <glyph glyph-name="dollar" unicode="$" horiz-adv-x="612" 
d="M334 387c113 -27 235 -61 235 -202c0 -108 -92 -187 -235 -195v-78c0 -13 -10 -22 -23 -22s-22 9 -22 22v78c-89 4 -161 25 -214 48c-15 6 -28 21 -28 39c0 22 16 41 41 41c6 0 12 -1 19 -4c42 -19 103 -37 182 -39v229c-113 30 -235 67 -235 199c0 106 81 196 235 204
v78c0 13 9 23 22 23s23 -10 23 -23v-77c69 -2 129 -15 178 -33c14 -5 28 -16 28 -40c0 -20 -15 -41 -40 -41c-5 0 -11 2 -16 4c-43 15 -94 26 -150 27v-238zM144 510c0 -68 65 -92 145 -112v225c-84 -8 -145 -47 -145 -113zM334 76c84 6 145 37 145 115
c0 58 -66 81 -145 102v-217z" />
    <glyph glyph-name="percent" unicode="%" horiz-adv-x="814" 
d="M204 715c106 0 161 -79 161 -179s-55 -179 -161 -179s-161 79 -161 179s55 179 161 179zM204 422c59 0 91 50 91 114s-32 114 -91 114s-91 -50 -91 -114s32 -114 91 -114zM610 340c106 0 161 -79 161 -179s-55 -179 -161 -179s-161 79 -161 179s55 179 161 179zM610 47
c59 0 91 50 91 114s-32 114 -91 114s-91 -50 -91 -114s32 -114 91 -114zM645 677c0 -6 -2 -14 -7 -22l-404 -647c-6 -10 -17 -18 -30 -18c-17 0 -33 14 -33 33c0 6 2 12 5 17l407 651c6 10 16 16 28 16c20 0 34 -11 34 -30z" />
    <glyph glyph-name="ampersand" unicode="&#x26;" horiz-adv-x="732" 
d="M577 129l67 -64c10 -9 16 -17 16 -32c0 -21 -15 -41 -41 -41c-13 0 -21 3 -31 12l-67 64c-54 -46 -124 -78 -205 -78c-177 0 -245 107 -245 206c0 103 74 167 113 192c-35 42 -61 82 -61 145c0 94 70 175 187 175c51 0 97 -20 133 -44c9 -5 18 -17 18 -30
c0 -18 -15 -35 -35 -35c-6 0 -12 2 -18 5c-26 14 -57 26 -94 26c-70 0 -107 -46 -107 -92c0 -60 28 -87 100 -155l209 -197c15 22 25 44 33 61c6 14 22 25 39 25c24 0 42 -17 42 -41c0 -7 -2 -14 -5 -20c-13 -28 -30 -57 -48 -82zM462 123l-223 209
c-36 -24 -82 -70 -82 -139c0 -75 67 -126 151 -126c65 0 116 25 154 56z" />
    <glyph glyph-name="quotesingle" unicode="'" horiz-adv-x="238" 
d="M135 743c31 0 56 -25 56 -56v-6v-53c0 -80 -43 -122 -82 -146c-3 -2 -10 -5 -17 -5c-17 0 -29 14 -29 30c0 11 5 19 15 25c29 17 51 38 51 93h-4c-31 0 -56 25 -56 56v6c0 31 25 56 56 56h10z" />
    <glyph glyph-name="parenleft" unicode="(" horiz-adv-x="312" 
d="M265 -115c0 -23 -19 -39 -40 -39c-17 0 -24 7 -33 18c-96 114 -141 276 -141 443s45 329 141 443c9 11 16 18 33 18c21 0 40 -16 40 -39c0 -8 -2 -15 -6 -22c-69 -115 -117 -252 -117 -400s48 -285 117 -400c4 -7 6 -14 6 -22z" />
    <glyph glyph-name="parenright" unicode=")" horiz-adv-x="312" 
d="M48 -115c0 8 2 15 6 22c69 115 117 252 117 400s-48 285 -117 400c-4 7 -6 14 -6 22c0 23 19 39 40 39c17 0 24 -7 33 -18c96 -114 141 -276 141 -443s-45 -329 -141 -443c-9 -11 -16 -18 -33 -18c-21 0 -40 16 -40 39z" />
    <glyph glyph-name="asterisk" unicode="*" horiz-adv-x="417" 
d="M336 504c14 -8 17 -27 10 -40c-8 -13 -26 -20 -40 -12c-2 1 -4 2 -84 67c16 -102 16 -104 16 -106c0 -17 -15 -29 -30 -29s-30 12 -30 29c0 2 0 4 16 106c-80 -65 -82 -66 -84 -67c-15 -8 -32 -1 -40 12c-7 13 -5 32 10 40c2 1 4 2 100 39c-96 37 -98 38 -100 39
c-15 9 -17 28 -10 41c8 13 25 20 40 11c2 -1 4 -2 84 -67c-16 102 -16 104 -16 106c0 17 15 29 30 29s30 -12 30 -29c0 -2 0 -4 -16 -106c80 65 82 66 84 67c14 9 32 2 40 -11c7 -13 4 -32 -10 -41c-2 -1 -4 -2 -100 -39c96 -37 98 -38 100 -39z" />
    <glyph glyph-name="plus" unicode="+" horiz-adv-x="562" 
d="M483 384c22 0 39 -17 39 -39s-17 -38 -39 -38h-163v-164c0 -22 -17 -39 -39 -39s-39 17 -39 39v164h-164c-22 0 -38 16 -38 38s16 39 38 39h164v164c0 22 17 39 39 39s39 -17 39 -39v-164h163z" />
    <glyph glyph-name="comma" unicode="," horiz-adv-x="260" 
d="M135 115c31 0 56 -25 56 -56v-6v-53c0 -80 -43 -122 -82 -146c-3 -2 -10 -5 -17 -5c-17 0 -29 14 -29 30c0 11 5 19 15 25c29 17 51 38 51 93h-4c-31 0 -56 25 -56 56v6c0 31 25 56 56 56h10z" />
    <glyph glyph-name="hyphen" unicode="-" horiz-adv-x="408" 
d="M298 321c23 0 41 -18 41 -41s-18 -40 -41 -40h-189c-23 0 -40 17 -40 40s17 41 40 41h189z" />
    <glyph glyph-name="period" unicode="." horiz-adv-x="260" 
d="M135 115c31 0 56 -25 56 -56v-6c0 -31 -25 -56 -56 -56h-10c-31 0 -56 25 -56 56v6c0 31 25 56 56 56h10z" />
    <glyph glyph-name="slash" unicode="/" horiz-adv-x="443" 
d="M355 764c24 0 41 -18 41 -41c0 -5 -2 -12 -3 -15l-265 -775c-5 -16 -19 -28 -39 -28c-24 0 -41 18 -41 41c0 5 2 12 3 15l265 775c5 16 19 28 39 28z" />
    <glyph glyph-name="zero" unicode="0" 
d="M314 708c179 0 271 -145 271 -359s-92 -359 -271 -359c-180 0 -271 145 -271 359s91 359 271 359zM314 74c118 0 180 106 180 275c0 168 -62 274 -180 274s-180 -106 -180 -274c0 -169 62 -275 180 -275z" />
    <glyph glyph-name="one" unicode="1" 
d="M486 85c24 0 43 -19 43 -43s-19 -42 -43 -42h-309c-24 0 -42 18 -42 42s18 43 42 43h119v507l-102 -50c-7 -3 -13 -6 -23 -6c-25 0 -43 18 -43 43c0 19 8 32 26 41l136 71c8 4 18 7 28 7h21c26 0 48 -22 48 -48v-565h99z" />
    <glyph glyph-name="two" unicode="2" 
d="M504 85c24 0 43 -19 43 -43s-19 -42 -43 -42h-386c-31 0 -53 21 -53 52c0 211 400 283 400 446c0 71 -42 124 -158 124c-68 0 -126 -16 -171 -36c-2 -1 -11 -5 -19 -5c-22 0 -38 17 -38 39c0 17 7 29 22 37c56 28 130 51 222 51c128 0 230 -81 230 -203
c0 -206 -343 -303 -397 -420h348z" />
    <glyph glyph-name="three" unicode="3" 
d="M407 361c56 -13 146 -55 146 -178c0 -127 -113 -193 -259 -193c-89 0 -160 20 -209 40c-15 6 -26 19 -26 38c0 21 16 42 40 42c6 0 14 -2 19 -4c40 -16 94 -29 159 -29c87 0 185 23 185 111c0 74 -56 126 -221 126h-16c-23 0 -42 19 -42 42s19 42 42 42h6
c131 0 206 40 206 121c0 62 -51 104 -158 104c-63 0 -114 -14 -155 -33c-5 -2 -10 -4 -18 -4c-20 0 -37 15 -37 37c0 14 7 27 20 34c47 25 114 51 198 51c154 0 241 -66 241 -180c0 -101 -64 -146 -121 -167z" />
    <glyph glyph-name="four" unicode="4" 
d="M555 257c23 0 41 -18 41 -41s-18 -40 -41 -40h-76v-136c0 -25 -21 -45 -46 -45s-45 20 -45 45v136h-305c-32 0 -58 25 -58 57v9c0 13 5 27 12 36l314 401c11 14 30 24 50 24h20c35 0 58 -26 58 -58v-388h76zM122 257h266v343z" />
    <glyph glyph-name="five" unicode="5" 
d="M338 442c151 0 233 -96 233 -226c0 -128 -84 -226 -274 -226c-93 0 -163 26 -213 58c-10 7 -20 15 -20 36c0 23 16 43 40 43c8 0 15 -2 21 -5c43 -23 97 -42 160 -42c118 0 195 33 195 141c0 82 -59 134 -155 134c-68 0 -121 -23 -154 -43c-9 -5 -19 -12 -35 -12
c-37 0 -66 22 -66 58c0 7 1 18 2 24l45 266c4 31 25 50 53 50h321c24 0 43 -19 43 -43s-19 -42 -43 -42h-290l-32 -212c41 22 95 41 169 41z" />
    <glyph glyph-name="six" unicode="6" 
d="M351 452c136 0 229 -92 229 -235c0 -126 -94 -227 -247 -227c-247 0 -274 221 -274 358c0 156 70 360 290 360c83 0 137 -22 177 -43c12 -6 21 -21 21 -36c0 -21 -16 -41 -41 -41c-6 0 -12 1 -17 3c-34 16 -78 29 -133 29c-172 0 -205 -166 -210 -256c33 42 95 88 205 88
zM334 75c95 0 155 67 155 144c0 88 -49 150 -149 150c-118 0 -168 -71 -189 -110c14 -97 58 -184 183 -184z" />
    <glyph glyph-name="seven" unicode="7" 
d="M567 645c0 -16 -4 -31 -10 -44l-284 -581c-8 -15 -25 -25 -43 -25c-26 0 -45 19 -45 45c0 8 2 16 6 24l275 547h-363c-24 0 -43 19 -43 43s19 44 43 44h408c32 0 56 -23 56 -53z" />
    <glyph glyph-name="eight" unicode="8" 
d="M548 526c0 -82 -54 -131 -116 -152c89 -30 149 -87 149 -189c0 -89 -68 -195 -267 -195s-267 106 -267 195c0 102 60 159 149 189c-62 21 -116 70 -116 152c0 78 59 182 234 182s234 -104 234 -182zM314 70c134 0 176 80 176 125c0 90 -84 135 -176 135
s-176 -45 -176 -135c0 -45 42 -125 176 -125zM171 520c0 -46 34 -108 143 -108s143 62 143 108c0 59 -46 108 -143 108s-143 -49 -143 -108z" />
    <glyph glyph-name="nine" unicode="9" 
d="M277 246c-136 0 -229 92 -229 235c0 126 94 227 247 227c247 0 274 -221 274 -358c0 -156 -70 -360 -290 -360c-83 0 -137 22 -177 43c-12 6 -21 21 -21 36c0 21 16 41 41 41c6 0 12 -1 17 -3c34 -16 78 -29 133 -29c172 0 205 166 210 256c-33 -42 -95 -88 -205 -88z
M294 623c-95 0 -155 -67 -155 -144c0 -88 49 -150 149 -150c118 0 168 71 189 110c-14 97 -58 184 -183 184z" />
    <glyph glyph-name="colon" unicode=":" horiz-adv-x="260" 
d="M135 115c31 0 56 -25 56 -56v-6c0 -31 -25 -56 -56 -56h-10c-31 0 -56 25 -56 56v6c0 31 25 56 56 56h10zM135 513c31 0 56 -25 56 -56v-6c0 -31 -25 -56 -56 -56h-10c-31 0 -56 25 -56 56v6c0 31 25 56 56 56h10z" />
    <glyph glyph-name="semicolon" unicode=";" horiz-adv-x="260" 
d="M135 115c31 0 56 -25 56 -56v-6v-53c0 -80 -43 -122 -82 -146c-3 -2 -10 -5 -17 -5c-17 0 -29 14 -29 30c0 11 5 19 15 25c29 17 51 38 51 93h-4c-31 0 -56 25 -56 56v6c0 31 25 56 56 56h10zM135 513c31 0 56 -25 56 -56v-6c0 -31 -25 -56 -56 -56h-10
c-31 0 -56 25 -56 56v6c0 31 25 56 56 56h10z" />
    <glyph glyph-name="less" unicode="&#x3c;" horiz-adv-x="580" 
d="M486 58c-6 0 -11 1 -16 3l-399 179c-22 10 -36 29 -36 52v8c0 23 14 42 36 52l399 179c5 2 10 3 16 3c22 0 40 -17 40 -40c0 -16 -11 -31 -27 -38l-360 -160l360 -160c16 -7 27 -22 27 -38c0 -23 -18 -40 -40 -40z" />
    <glyph glyph-name="equal" unicode="=" horiz-adv-x="712" 
d="M112 404c-22 0 -39 17 -39 39s17 39 39 39h488c22 0 39 -17 39 -39s-17 -39 -39 -39h-488zM600 258c22 0 39 -17 39 -39s-17 -39 -39 -39h-488c-22 0 -39 17 -39 39s17 39 39 39h488z" />
    <glyph glyph-name="greater" unicode="&#x3e;" horiz-adv-x="580" 
d="M94 58c-22 0 -40 17 -40 40c0 16 11 31 27 38l360 160l-360 160c-16 7 -27 22 -27 38c0 23 18 40 40 40c6 0 11 -1 16 -3l399 -179c22 -10 36 -29 36 -52v-8c0 -23 -14 -42 -36 -52l-399 -179c-5 -2 -10 -3 -16 -3z" />
    <glyph glyph-name="question" unicode="?" horiz-adv-x="497" 
d="M227 708c136 0 225 -73 225 -189c0 -160 -187 -166 -187 -294c0 -22 -21 -39 -44 -39c-25 0 -44 18 -44 39c0 170 185 191 185 289c0 68 -42 109 -143 109c-45 0 -93 -11 -128 -33c-6 -4 -17 -8 -25 -8c-22 0 -40 18 -40 40c0 19 12 30 25 38c56 35 110 48 176 48z
M219 115c33 0 60 -27 60 -59c0 -33 -27 -60 -60 -60c-32 0 -59 27 -59 60c0 32 27 59 59 59z" />
    <glyph glyph-name="at" unicode="@" horiz-adv-x="898" 
d="M473 688c206 -1 381 -141 381 -346c0 -117 -51 -247 -186 -247c-72 0 -105 39 -112 74c-43 -52 -103 -75 -165 -75c-110 0 -170 76 -170 176c0 156 118 243 237 243c61 0 103 -27 128 -51l3 17c3 18 19 31 37 31c20 0 36 -16 36 -37c0 -2 0 -5 -1 -11l-33 -190
c-3 -16 -7 -41 -7 -65c0 -34 14 -65 50 -65c84 0 129 80 129 200c0 193 -168 293 -327 293c-202 0 -372 -171 -372 -373c0 -144 105 -293 299 -293c91 0 147 21 209 46c3 1 7 2 11 2c14 0 25 -10 25 -24c0 -10 -6 -19 -14 -23c-56 -28 -132 -53 -231 -53
c-214 0 -351 164 -351 345c0 229 193 426 424 426zM559 303l16 93c-23 24 -59 46 -113 46c-84 0 -164 -56 -164 -162c0 -82 52 -117 115 -117c64 0 127 28 146 140z" />
    <glyph glyph-name="A" unicode="A" horiz-adv-x="697" 
d="M667 60c3 -7 5 -14 5 -20c0 -25 -17 -45 -45 -45c-19 0 -35 10 -43 28l-65 156h-340l-65 -156c-8 -18 -24 -28 -43 -28c-28 0 -45 20 -45 45c0 6 2 13 5 20l255 602c9 21 28 41 58 41h10c30 0 49 -20 58 -41zM214 262h270l-135 325z" />
    <glyph glyph-name="B" unicode="B" horiz-adv-x="693" 
d="M504 363c72 -23 137 -75 137 -167c0 -117 -72 -196 -257 -196h-242c-25 0 -45 20 -45 45v607c0 25 20 46 45 46h236c146 0 224 -73 224 -181c0 -83 -47 -131 -98 -154zM515 510c0 62 -53 103 -144 103h-183v-217h166c126 0 161 49 161 114zM375 85c137 0 178 47 178 115
c0 79 -62 114 -177 114h-188v-229h187z" />
    <glyph glyph-name="C" unicode="C" horiz-adv-x="698" 
d="M616 128c25 0 41 -19 40 -40c-1 -19 -9 -29 -22 -36c-62 -35 -130 -62 -228 -62c-199 0 -350 136 -350 359s151 359 350 359c98 0 166 -27 228 -62c13 -7 21 -17 22 -36c1 -21 -15 -40 -40 -40c-5 0 -12 1 -18 4c-53 28 -105 47 -183 47c-177 0 -268 -118 -268 -272
s91 -272 268 -272c78 0 130 19 183 47c6 3 13 4 18 4z" />
    <glyph glyph-name="D" unicode="D" horiz-adv-x="750" 
d="M343 698c239 0 353 -180 353 -349c0 -168 -114 -349 -353 -349h-201c-25 0 -45 20 -45 45v607c0 25 20 46 45 46h201zM332 85c167 0 274 108 274 264s-107 264 -274 264h-144v-528h144z" />
    <glyph glyph-name="E" unicode="E" horiz-adv-x="638" 
d="M543 85c24 0 43 -19 43 -43s-19 -42 -43 -42h-401c-25 0 -45 20 -45 45v607c0 25 20 46 45 46h401c24 0 43 -19 43 -43s-19 -42 -43 -42h-355v-221h319c24 0 43 -19 43 -43s-19 -42 -43 -42h-319v-222h355z" />
    <glyph glyph-name="F" unicode="F" horiz-adv-x="610" 
d="M531 613h-343v-221h308c24 0 43 -19 43 -43s-19 -42 -43 -42h-308v-267c0 -25 -21 -45 -46 -45s-45 20 -45 45v612c0 25 20 46 45 46h389c24 0 43 -19 43 -43s-19 -42 -43 -42z" />
    <glyph glyph-name="G" unicode="G" horiz-adv-x="744" 
d="M625 383c27 0 48 -21 48 -48v-227c0 -28 -15 -51 -38 -62c-66 -33 -142 -56 -229 -56c-210 0 -351 149 -351 358c0 217 154 360 348 360c113 0 186 -32 249 -72c9 -5 20 -18 20 -36c0 -21 -16 -41 -42 -41c-8 0 -15 2 -21 5c-59 35 -119 56 -196 56
c-151 0 -267 -97 -267 -272c0 -154 100 -272 272 -272c70 0 129 19 175 44v181h-165c-23 0 -41 18 -41 41s18 41 41 41h197z" />
    <glyph glyph-name="H" unicode="H" horiz-adv-x="755" 
d="M612 703c25 0 46 -21 46 -46v-617c0 -25 -21 -45 -46 -45s-45 20 -45 45v266h-379v-266c0 -25 -21 -45 -46 -45s-45 20 -45 45v617c0 25 20 46 45 46s46 -21 46 -46v-266h379v266c0 25 20 46 45 46z" />
    <glyph glyph-name="I" unicode="I" horiz-adv-x="285" 
d="M142 703c25 0 46 -21 46 -46v-617c0 -25 -21 -45 -46 -45s-45 20 -45 45v617c0 25 20 46 45 46z" />
    <glyph glyph-name="J" unicode="J" horiz-adv-x="466" 
d="M327 703c25 0 46 -21 46 -46v-427c0 -191 -104 -240 -206 -240c-51 0 -96 13 -133 34c-12 7 -22 18 -22 37c0 21 15 41 38 41c5 0 12 -1 18 -4c27 -13 58 -22 93 -22c60 0 121 22 121 148v433c0 25 20 46 45 46z" />
    <glyph glyph-name="K" unicode="K" horiz-adv-x="670" 
d="M629 68c7 -9 11 -18 11 -29c1 -24 -19 -44 -44 -44c-15 0 -28 7 -36 18l-258 329l-114 -115v-187c0 -25 -21 -45 -46 -45s-45 20 -45 45v617c0 25 20 46 45 46s46 -21 46 -46v-318l342 348c7 8 19 16 34 16c24 0 44 -19 42 -43c-1 -11 -4 -21 -11 -28l-231 -230z" />
    <glyph glyph-name="L" unicode="L" horiz-adv-x="576" 
d="M515 91c25 0 46 -21 46 -46s-21 -45 -46 -45h-355c-35 0 -63 28 -63 63v594c0 25 20 46 45 46s46 -21 46 -46v-566h327z" />
    <glyph glyph-name="M" unicode="M" horiz-adv-x="966" 
d="M804 703c36 0 65 -30 65 -66v-597c0 -25 -20 -45 -45 -45s-46 20 -46 45v568l-231 -571c-11 -25 -35 -42 -64 -42s-53 17 -64 42l-231 571v-568c0 -25 -21 -45 -46 -45s-45 20 -45 45v597c0 36 29 66 65 66h33c27 0 51 -18 61 -42l227 -566l227 566c10 24 34 42 61 42h33
z" />
    <glyph glyph-name="N" unicode="N" horiz-adv-x="803" 
d="M660 703c25 0 46 -21 46 -46v-597c0 -36 -30 -65 -66 -65h-12c-22 0 -41 11 -53 27l-387 559v-541c0 -25 -21 -45 -46 -45s-45 20 -45 45v597c0 36 29 66 65 66h13c22 0 41 -12 55 -30l385 -556v540c0 25 20 46 45 46z" />
    <glyph glyph-name="O" unicode="O" horiz-adv-x="811" 
d="M406 708c213 0 347 -150 351 -359c-4 -209 -138 -359 -351 -359c-214 0 -347 150 -351 359c4 209 137 359 351 359zM406 75c165 0 260 120 260 274s-95 274 -260 274c-166 0 -260 -120 -260 -274s94 -274 260 -274z" />
    <glyph glyph-name="P" unicode="P" horiz-adv-x="669" 
d="M370 698c202 0 267 -116 267 -222s-65 -222 -267 -222h-182v-214c0 -25 -21 -45 -46 -45s-45 20 -45 45v612c0 25 20 46 45 46h228zM361 340c149 0 185 71 185 136s-36 136 -185 136h-173v-272h173z" />
    <glyph glyph-name="Q" unicode="Q" horiz-adv-x="812" 
d="M757 349c-3 -156 -79 -279 -207 -332l88 -97c7 -7 12 -18 12 -29c1 -23 -19 -43 -43 -43c-13 0 -24 6 -32 16l-109 130c-19 -3 -39 -4 -60 -4c-214 0 -347 150 -351 359c4 209 137 359 351 359c213 0 347 -150 351 -359zM406 75c165 0 260 120 260 274s-95 274 -260 274
c-166 0 -260 -120 -260 -274s94 -274 260 -274z" />
    <glyph glyph-name="R" unicode="R" horiz-adv-x="712" 
d="M641 86v-46c0 -25 -20 -45 -45 -45c-28 0 -46 18 -46 45v30c0 66 -4 202 -155 202h-207v-232c0 -25 -21 -45 -46 -45s-45 20 -45 45v612c0 25 20 46 45 46h233c190 0 272 -88 272 -203c0 -77 -43 -151 -131 -181c111 -29 125 -172 125 -228zM369 358
c112 0 187 45 187 130c0 74 -44 124 -192 124h-176v-254h181z" />
    <glyph glyph-name="S" unicode="S" horiz-adv-x="616" 
d="M149 510c0 -173 424 -61 424 -325c0 -113 -101 -195 -256 -195c-100 0 -180 23 -238 48c-15 6 -28 23 -28 41c0 22 16 42 41 42c6 0 12 -1 19 -4c45 -20 111 -41 197 -41c99 0 175 28 175 115c0 148 -425 66 -425 312c0 111 90 205 259 205c78 0 145 -13 199 -33
c14 -5 28 -16 28 -40c0 -20 -15 -42 -40 -42c-5 0 -11 2 -16 4c-46 16 -100 27 -161 27c-101 0 -178 -39 -178 -114z" />
    <glyph glyph-name="T" unicode="T" horiz-adv-x="611" 
d="M554 698c24 0 43 -19 43 -43s-19 -42 -43 -42h-203v-573c0 -25 -21 -45 -46 -45s-45 20 -45 45v573h-204c-24 0 -42 18 -42 42s18 43 42 43h498z" />
    <glyph glyph-name="U" unicode="U" horiz-adv-x="758" 
d="M620 703c25 0 46 -21 46 -46v-395c0 -188 -153 -272 -287 -272s-287 84 -287 272v395c0 25 20 46 45 46s46 -21 46 -46v-398c0 -125 98 -186 196 -186s196 61 196 186v398c0 25 20 46 45 46z" />
    <glyph glyph-name="V" unicode="V" horiz-adv-x="694" 
d="M112 672l235 -586l235 586c8 19 25 31 43 31c28 0 45 -19 45 -46c0 -5 -1 -12 -3 -17l-247 -599c-13 -29 -34 -46 -62 -46h-22c-28 0 -49 17 -62 46l-247 599c-2 5 -3 12 -3 17c0 27 17 46 45 46c18 0 35 -12 43 -31z" />
    <glyph glyph-name="W" unicode="W" horiz-adv-x="1007" 
d="M504 703c24 0 45 -16 52 -38l169 -550l168 552c6 21 23 36 45 36c26 0 46 -19 44 -44c0 -5 -1 -10 -3 -17l-196 -602c-11 -31 -34 -45 -59 -45c-27 0 -51 19 -59 45l-161 510l-161 -510c-8 -26 -32 -45 -59 -45c-25 0 -48 14 -59 45l-196 602c-2 7 -3 12 -3 17
c-2 25 18 44 44 44c22 0 39 -15 45 -36l168 -552l169 550c7 22 28 38 52 38z" />
    <glyph glyph-name="X" unicode="X" horiz-adv-x="669" 
d="M617 66c6 -7 9 -16 9 -26c0 -24 -17 -45 -45 -45c-15 0 -28 8 -36 19l-214 269l-211 -270c-9 -11 -20 -18 -35 -18c-23 0 -42 19 -42 42c0 10 3 20 9 28l231 284l-229 282c-6 8 -9 17 -9 28c0 25 19 44 44 44c15 0 29 -7 37 -18l211 -268l211 270c7 10 19 16 33 16
c24 0 44 -19 44 -43c0 -9 -3 -18 -8 -25l-231 -285z" />
    <glyph glyph-name="Y" unicode="Y" horiz-adv-x="645" 
d="M323 376l209 304c10 15 23 23 40 23c26 0 45 -21 44 -46c0 -10 -3 -19 -8 -27l-240 -335v-255c0 -25 -20 -45 -45 -45s-46 20 -46 45v255l-239 335c-5 8 -8 17 -8 27c-1 25 18 46 44 46c17 0 30 -8 40 -23z" />
    <glyph glyph-name="Z" unicode="Z" horiz-adv-x="638" 
d="M550 85c24 0 43 -19 43 -43s-19 -42 -43 -42h-445c-32 0 -58 26 -58 58c0 14 4 27 12 37l418 516h-385c-24 0 -43 19 -43 43s19 44 43 44h434c38 0 61 -29 61 -62c0 -13 -6 -29 -16 -40l-413 -511h392z" />
    <glyph glyph-name="bracketleft" unicode="[" horiz-adv-x="322" 
d="M258 -61c20 0 36 -16 36 -35s-16 -36 -36 -36h-127c-24 0 -44 20 -44 44v776c0 24 20 44 44 44h127c20 0 36 -16 36 -36s-16 -36 -36 -36h-92v-721h92z" />
    <glyph glyph-name="backslash" unicode="\" horiz-adv-x="443" 
d="M88 764c20 0 34 -12 39 -28l265 -775c1 -3 3 -10 3 -15c0 -23 -17 -41 -41 -41c-20 0 -34 12 -39 28l-265 775c-1 3 -3 10 -3 15c0 23 17 41 41 41z" />
    <glyph glyph-name="bracketright" unicode="]" horiz-adv-x="322" 
d="M64 -61h92v721h-92c-20 0 -36 16 -36 36s16 36 36 36h127c24 0 44 -20 44 -44v-776c0 -24 -20 -44 -44 -44h-127c-20 0 -36 17 -36 36s16 35 36 35z" />
    <glyph glyph-name="asciicircum" unicode="^" horiz-adv-x="524" 
d="M242 702h38c26 0 39 -15 49 -34l105 -199c3 -6 6 -11 6 -18c0 -19 -15 -36 -36 -36c-11 0 -20 4 -26 11c-2 2 -4 8 -117 190c-111 -180 -115 -188 -117 -190c-6 -7 -15 -11 -26 -11c-21 0 -36 17 -36 36c0 7 3 12 6 18l105 199c10 19 23 34 49 34z" />
    <glyph glyph-name="underscore" unicode="_" horiz-adv-x="663" 
d="M578 -81c18 0 33 -15 33 -33s-15 -33 -33 -33h-493c-18 0 -33 15 -33 33s15 33 33 33h493z" />
    <glyph glyph-name="grave" unicode="`" horiz-adv-x="246" 
d="M106 722c17 0 27 -8 33 -19l51 -90c2 -3 7 -11 7 -19c0 -16 -11 -27 -27 -27c-10 0 -16 4 -22 11l-69 82c-7 8 -10 16 -10 25c0 22 15 37 37 37z" />
    <glyph glyph-name="a" unicode="a" horiz-adv-x="555" 
d="M271 520c146 0 209 -99 209 -197v-283c0 -25 -21 -45 -46 -45s-45 20 -45 45v26c-36 -37 -94 -76 -188 -76c-87 0 -163 56 -163 150s74 162 230 162h121v8c0 89 -44 124 -134 124c-56 0 -96 -12 -133 -24c-4 -1 -9 -2 -13 -2c-20 0 -37 16 -37 38c0 17 9 31 26 38
c47 20 102 36 173 36zM235 70c62 0 120 36 154 75v84h-109c-94 0 -151 -22 -151 -79c0 -43 25 -80 106 -80z" />
    <glyph glyph-name="b" unicode="b" horiz-adv-x="631" 
d="M341 520c121 0 242 -95 242 -265s-121 -265 -242 -265c-70 0 -125 28 -171 76v-26c0 -25 -20 -45 -46 -45c-25 0 -45 20 -45 45v649c0 26 20 46 45 46c26 0 46 -20 46 -46v-245c46 48 101 76 171 76zM328 75c95 0 164 62 164 180s-69 180 -164 180
c-65 0 -119 -32 -158 -75v-210c39 -43 93 -75 158 -75z" />
    <glyph glyph-name="c" unicode="c" horiz-adv-x="536" 
d="M458 113c21 0 38 -21 38 -40c0 -15 -8 -27 -20 -35c-34 -22 -84 -48 -163 -48c-142 0 -267 98 -267 265s125 265 267 265c79 0 129 -26 163 -48c12 -8 20 -20 20 -35c0 -19 -17 -40 -38 -40c-8 0 -13 1 -22 6c-35 18 -63 32 -115 32c-116 0 -184 -73 -184 -180
s68 -180 184 -180c52 0 80 14 115 32c9 5 14 6 22 6z" />
    <glyph glyph-name="d" unicode="d" horiz-adv-x="631" 
d="M290 520c70 0 125 -28 171 -76v245c0 26 20 46 46 46c25 0 45 -20 45 -46v-649c0 -25 -20 -45 -45 -45c-26 0 -46 20 -46 45v26c-46 -48 -101 -76 -171 -76c-121 0 -242 95 -242 265s121 265 242 265zM303 75c65 0 119 32 158 75v210c-39 43 -93 75 -158 75
c-95 0 -164 -62 -164 -180s69 -180 164 -180z" />
    <glyph glyph-name="e" unicode="e" horiz-adv-x="570" 
d="M469 110c21 0 40 -16 40 -39c0 -16 -12 -29 -26 -37c-44 -25 -88 -44 -175 -44c-163 0 -259 97 -259 265c0 135 73 265 239 265c154 0 238 -119 238 -252c0 -25 -18 -45 -46 -45h-339c10 -90 67 -148 175 -148c60 0 98 12 135 31c6 3 11 4 18 4zM288 443
c-64 0 -141 -42 -147 -146h295c-6 104 -84 146 -148 146z" />
    <glyph glyph-name="f" unicode="f" horiz-adv-x="380" 
d="M290 653c-50 0 -82 -17 -82 -88v-55h125c22 0 39 -17 39 -39s-17 -39 -39 -39h-125v-392c0 -25 -20 -45 -46 -45c-25 0 -45 20 -45 45v392h-59c-22 0 -39 17 -39 39s17 39 39 39h59v58c0 126 79 172 150 172c33 0 63 -8 87 -20c12 -6 23 -19 23 -35
c0 -19 -16 -38 -37 -38c-16 0 -31 6 -50 6z" />
    <glyph glyph-name="g" unicode="g" horiz-adv-x="631" 
d="M506 515c25 0 46 -21 46 -46v-447c0 -168 -85 -262 -235 -262c-81 0 -167 25 -214 52c-10 6 -18 16 -18 35c0 20 17 41 40 41c7 0 13 -2 18 -4c42 -21 97 -38 165 -38c102 0 153 55 153 163v67c-41 -44 -96 -76 -171 -76c-111 0 -242 83 -242 260s131 260 242 260
c75 0 130 -32 171 -76v25c0 25 20 46 45 46zM461 157v206c-37 38 -83 74 -152 74c-95 0 -170 -57 -170 -177s75 -177 170 -177c69 0 115 36 152 74z" />
    <glyph glyph-name="h" unicode="h" horiz-adv-x="609" 
d="M356 520c114 0 179 -89 179 -196v-284c0 -25 -21 -45 -46 -45s-45 20 -45 45v274c0 76 -32 122 -110 122c-72 0 -124 -46 -164 -96v-300c0 -25 -21 -45 -46 -45s-45 20 -45 45v649c0 26 20 46 45 46s46 -20 46 -46v-261c42 46 97 92 186 92z" />
    <glyph glyph-name="i" unicode="i" horiz-adv-x="257" 
d="M128 515c26 0 46 -20 46 -46v-429c0 -25 -20 -45 -46 -45c-25 0 -45 20 -45 45v429c0 26 20 46 45 46zM183 669v-4c0 -28 -23 -51 -51 -51h-6c-28 0 -51 23 -51 51v4c0 28 23 51 51 51h6c28 0 51 -23 51 -51z" />
    <glyph glyph-name="j" unicode="j" horiz-adv-x="257" 
d="M128 514c26 0 46 -20 46 -46v-571c0 -77 -35 -137 -131 -137c-24 0 -45 3 -63 9c-16 5 -26 19 -26 36c0 20 16 38 38 38c9 0 18 -3 30 -3c35 0 61 5 61 59v569c0 26 20 46 45 46zM183 669v-4c0 -28 -23 -51 -51 -51h-6c-28 0 -51 23 -51 51v4c0 28 23 51 51 51h6
c28 0 51 -23 51 -51z" />
    <glyph glyph-name="k" unicode="k" horiz-adv-x="546" 
d="M502 66c6 -8 10 -17 10 -27c0 -27 -19 -44 -46 -44c-14 0 -28 8 -37 19l-172 234l-87 -79v-129c0 -25 -21 -45 -46 -45s-45 20 -45 45v649c0 25 20 46 45 46s46 -21 46 -46v-409l238 220c8 7 18 13 30 13c34 0 44 -24 44 -44c0 -8 -3 -20 -17 -34l-144 -129z" />
    <glyph glyph-name="l" unicode="l" horiz-adv-x="265" 
d="M132 735c26 0 46 -20 46 -46v-649c0 -25 -20 -45 -46 -45c-25 0 -45 20 -45 45v649c0 26 20 46 45 46z" />
    <glyph glyph-name="m" unicode="m" horiz-adv-x="919" 
d="M677 520c118 0 167 -103 167 -192v-288c0 -25 -21 -45 -46 -45s-45 20 -45 45v270c0 84 -26 126 -102 126s-117 -51 -144 -96v-300c0 -25 -21 -45 -46 -45s-45 20 -45 45v270c0 84 -26 126 -102 126s-117 -51 -144 -96v-300c0 -25 -21 -45 -46 -45s-45 20 -45 45v429
c0 25 20 46 45 46s46 -21 46 -46v-41c28 39 75 92 170 92c80 0 132 -51 153 -103c23 38 74 103 184 103z" />
    <glyph glyph-name="n" unicode="n" horiz-adv-x="609" 
d="M356 520c114 0 179 -89 179 -196v-284c0 -25 -21 -45 -46 -45s-45 20 -45 45v274c0 76 -32 122 -110 122c-72 0 -124 -46 -164 -96v-300c0 -25 -21 -45 -46 -45s-45 20 -45 45v429c0 26 20 46 45 46s46 -20 46 -46v-41c42 46 97 92 186 92z" />
    <glyph glyph-name="o" unicode="o" horiz-adv-x="608" 
d="M304 520c154 0 256 -107 256 -265s-102 -265 -256 -265c-155 0 -256 107 -256 265s101 265 256 265zM304 73c76 0 165 50 165 183c0 132 -89 181 -165 181c-77 0 -165 -49 -165 -181c0 -133 88 -183 165 -183z" />
    <glyph glyph-name="p" unicode="p" horiz-adv-x="631" 
d="M341 -10c-70 0 -125 28 -171 76v-255c0 -26 -20 -46 -46 -46c-25 0 -45 20 -45 46v659c0 25 20 45 45 45c26 0 46 -20 46 -45v-26c46 48 101 76 171 76c121 0 242 -95 242 -265s-121 -265 -242 -265zM328 435c-65 0 -119 -32 -158 -75v-210c39 -43 93 -75 158 -75
c95 0 164 62 164 180s-69 180 -164 180z" />
    <glyph glyph-name="q" unicode="q" horiz-adv-x="631" 
d="M290 -10c-121 0 -242 95 -242 265s121 265 242 265c70 0 125 -28 171 -76v26c0 25 20 45 46 45c25 0 45 -20 45 -45v-659c0 -26 -20 -46 -45 -46c-26 0 -46 20 -46 46v255c-46 -48 -101 -76 -171 -76zM303 435c-95 0 -164 -62 -164 -180s69 -180 164 -180
c65 0 119 32 158 75v210c-39 43 -93 75 -158 75z" />
    <glyph glyph-name="r" unicode="r" horiz-adv-x="387" 
d="M332 520c25 0 44 -20 44 -45c0 -26 -20 -43 -46 -43h-5c-66 0 -120 -36 -155 -88v-304c0 -25 -21 -45 -46 -45s-45 20 -45 45v429c0 25 20 46 45 46s46 -21 46 -46v-43c36 48 88 94 157 94h5z" />
    <glyph glyph-name="s" unicode="s" horiz-adv-x="480" 
d="M139 367c0 -104 301 -33 301 -229c0 -81 -65 -148 -193 -148c-73 0 -131 17 -182 45c-10 7 -17 19 -17 33c0 20 16 40 39 40c6 0 11 -1 18 -4c36 -16 77 -30 136 -30c77 0 111 26 111 71c0 86 -300 35 -300 217c0 90 65 158 195 158c55 0 104 -10 145 -25
c19 -6 29 -23 29 -38c0 -21 -17 -40 -40 -40c-5 0 -9 1 -13 2c-32 10 -70 18 -114 18c-74 0 -115 -30 -115 -70z" />
    <glyph glyph-name="t" unicode="t" horiz-adv-x="384" 
d="M328 79c18 0 36 -15 36 -36c0 -17 -9 -28 -23 -35c-24 -11 -51 -18 -83 -18c-47 0 -146 8 -146 132v310h-71c-11 0 -19 8 -19 19c0 6 3 12 9 17l136 133c3 3 9 9 17 9c11 0 19 -9 19 -20v-80h113c22 0 39 -17 39 -39s-17 -39 -39 -39h-113v-302c0 -59 40 -60 65 -60
c32 0 43 9 60 9z" />
    <glyph glyph-name="u" unicode="u" horiz-adv-x="610" 
d="M254 -10c-114 0 -179 89 -179 196v284c0 25 21 45 46 45s45 -20 45 -45v-274c0 -76 32 -122 110 -122c72 0 124 46 164 96v300c0 25 21 45 46 45s45 -20 45 -45v-429c0 -26 -20 -46 -45 -46s-46 20 -46 46v41c-42 -46 -97 -92 -186 -92z" />
    <glyph glyph-name="v" unicode="v" horiz-adv-x="530" 
d="M459 515c25 0 45 -21 45 -46c0 -8 -2 -14 -5 -21l-174 -416c-9 -20 -30 -37 -55 -37h-10c-25 0 -46 17 -55 37l-174 416c-3 7 -5 13 -5 21c0 25 20 46 45 46c18 0 35 -11 41 -26l153 -388l153 388c6 15 23 26 41 26z" />
    <glyph glyph-name="w" unicode="w" horiz-adv-x="785" 
d="M716 515c25 0 45 -20 45 -45c0 -6 -1 -11 -3 -17l-142 -416c-8 -23 -31 -42 -58 -42s-50 19 -59 43l-106 331l-106 -331c-9 -24 -32 -43 -59 -43s-50 19 -58 42l-142 416c-2 6 -3 11 -3 17c0 25 20 45 45 45c18 0 36 -10 41 -27l117 -385l116 376c6 21 26 36 49 36
s43 -15 49 -36l116 -376l117 385c5 17 23 27 41 27z" />
    <glyph glyph-name="x" unicode="x" horiz-adv-x="542" 
d="M324 258l156 -188c8 -9 11 -21 11 -29c0 -23 -15 -46 -46 -46c-14 0 -27 7 -35 18l-142 170l-134 -168c-9 -12 -23 -20 -39 -20c-26 0 -43 18 -43 46c0 10 3 19 10 28l155 183l-155 189c-7 9 -11 18 -11 29c0 28 20 45 45 45c16 0 29 -7 36 -17l140 -173l139 173
c8 11 21 17 35 17c27 0 46 -19 46 -43c0 -10 -4 -20 -10 -28z" />
    <glyph glyph-name="y" unicode="y" horiz-adv-x="533" 
d="M509 469c0 -6 -1 -12 -3 -17l-273 -656c-8 -18 -21 -31 -42 -31c-24 0 -43 20 -43 44c0 5 1 11 3 16l65 167l-188 458c-2 5 -4 12 -4 19c0 25 20 46 45 46c19 0 35 -12 42 -28l154 -382l157 380c8 18 22 30 42 30c25 0 45 -21 45 -46z" />
    <glyph glyph-name="z" unicode="z" horiz-adv-x="499" 
d="M457 42c0 -24 -19 -42 -43 -42h-312c-35 0 -63 18 -63 53c0 16 6 30 16 41l288 331h-253c-24 0 -42 18 -42 42s18 43 42 43h303c34 0 58 -23 58 -57c0 -16 -5 -29 -14 -40l-280 -328h257c24 0 43 -19 43 -43z" />
    <glyph glyph-name="braceleft" unicode="{" horiz-adv-x="344" 
d="M281 -145h-12c-80 0 -140 22 -140 120v211c0 33 -3 66 -92 81c-23 4 -34 20 -34 40s11 36 34 40c89 15 92 48 92 81v211c0 98 60 120 140 120h12c19 0 35 -16 35 -35s-16 -35 -35 -35h-15c-57 0 -59 -25 -59 -42v-222c0 -60 -32 -97 -90 -118c58 -21 90 -58 90 -118v-222
c0 -17 2 -42 59 -42h15c19 0 35 -16 35 -35s-16 -35 -35 -35z" />
    <glyph glyph-name="bar" unicode="|" horiz-adv-x="253" 
d="M126 741c23 0 41 -18 41 -41v-856c0 -23 -18 -40 -41 -40s-40 17 -40 40v856c0 23 17 41 40 41z" />
    <glyph glyph-name="braceright" unicode="}" horiz-adv-x="344" 
d="M75 -145h-12c-19 0 -35 16 -35 35s16 35 35 35h15c57 0 59 25 59 42v222c0 60 32 97 90 118c-58 21 -90 58 -90 118v222c0 17 -2 42 -59 42h-15c-19 0 -35 16 -35 35s16 35 35 35h12c80 0 140 -22 140 -120v-211c0 -33 3 -66 92 -81c23 -4 34 -20 34 -40s-11 -36 -34 -40
c-89 -15 -92 -48 -92 -81v-211c0 -98 -60 -120 -140 -120z" />
    <glyph glyph-name="asciitilde" unicode="~" horiz-adv-x="638" 
d="M543 366c13 0 28 -9 24 -31c-16 -87 -66 -129 -127 -129c-106 0 -173 76 -246 76c-40 0 -61 -22 -70 -54c-3 -11 -12 -19 -24 -19c-14 0 -26 12 -26 26c0 63 58 132 127 132c107 0 174 -76 247 -76c51 0 51 24 71 60c4 8 12 15 24 15z" />
    <glyph glyph-name="uni00A0" unicode="&#xa0;" horiz-adv-x="260" 
 />
    <glyph glyph-name="exclamdown" unicode="&#xa1;" horiz-adv-x="259" 
d="M130 317c21 0 32 -12 33 -29l18 -330v-99c0 -29 -22 -52 -51 -52s-52 23 -52 52v99l18 330c1 17 13 29 34 29zM130 395c-32 0 -59 27 -59 59c0 33 27 60 59 60c33 0 60 -27 60 -60c0 -32 -27 -59 -60 -59z" />
    <glyph glyph-name="cent" unicode="&#xa2;" horiz-adv-x="551" 
d="M419 620c17 0 28 -14 28 -29c0 -3 -1 -7 -2 -10l-27 -80c22 -8 41 -19 56 -29c12 -8 20 -20 20 -35c0 -19 -17 -40 -38 -40c-8 0 -13 1 -22 6l-43 20l-118 -344c14 -3 29 -4 46 -4c52 0 80 14 115 32c9 5 14 6 22 6c21 0 38 -21 38 -40c0 -15 -8 -27 -20 -35
c-34 -22 -84 -48 -163 -48c-23 0 -45 3 -66 8l-35 -103c-4 -12 -15 -18 -27 -18c-16 0 -28 13 -28 28c0 4 2 11 3 13l33 97c-86 39 -147 122 -147 240c0 167 125 265 267 265c19 0 36 -2 52 -4l29 85c4 11 15 19 27 19zM135 255c0 -72 30 -128 85 -157l115 336
c-5 1 -11 1 -16 1c-116 0 -184 -73 -184 -180z" />
    <glyph glyph-name="sterling" unicode="&#xa3;" horiz-adv-x="604" 
d="M524 93c23 0 41 -17 41 -40c0 -15 -9 -28 -23 -36c-31 -17 -67 -27 -106 -27c-84 0 -114 45 -199 45c-44 0 -80 -15 -108 -34c-7 -5 -14 -8 -23 -8c-20 0 -37 16 -37 35c0 13 5 23 14 31c43 41 92 114 92 196c0 18 -2 35 -6 52h-108c-13 0 -22 9 -22 22s9 23 22 23h96
c-14 45 -32 91 -32 150c0 130 99 206 243 206c57 0 103 -12 144 -29c17 -7 30 -20 30 -40c0 -23 -17 -42 -42 -42c-6 0 -16 3 -19 4c-34 11 -67 19 -109 19c-124 0 -156 -60 -156 -114c0 -52 20 -102 35 -154h177c13 0 23 -10 23 -23s-10 -22 -23 -22h-167
c3 -15 4 -30 4 -46c0 -61 -21 -110 -42 -143c8 0 16 1 25 1c78 0 125 -41 197 -41c24 0 43 4 63 11c3 1 11 4 16 4z" />
    <glyph glyph-name="currency" unicode="&#xa4;" horiz-adv-x="668" 
d="M103 81c-22 0 -37 17 -37 37c0 11 4 19 11 26l65 65c-28 40 -45 88 -45 140s17 100 45 140l-65 65c-7 7 -11 15 -11 26c0 20 15 37 37 37c11 0 18 -4 26 -11l66 -65c39 28 87 45 139 45s100 -17 139 -45l66 65c8 7 15 11 26 11c22 0 37 -17 37 -37c0 -11 -4 -19 -11 -26
l-65 -65c28 -40 45 -88 45 -140s-17 -100 -45 -140l65 -65c7 -7 11 -15 11 -26c0 -20 -15 -37 -37 -37c-11 0 -18 4 -26 11l-66 65c-39 -28 -87 -45 -139 -45s-100 17 -139 45l-66 -65c-8 -7 -15 -11 -26 -11zM334 505c-86 0 -156 -70 -156 -156s70 -156 156 -156
s156 70 156 156s-70 156 -156 156z" />
    <glyph glyph-name="yen" unicode="&#xa5;" horiz-adv-x="658" 
d="M156 684l173 -303l173 303c9 16 21 28 43 28c26 0 48 -19 48 -47c0 -10 -3 -18 -8 -26l-168 -274h98c21 0 37 -17 37 -38s-15 -37 -37 -37h-141v-91h141c21 0 37 -17 37 -38s-15 -37 -37 -37h-141v-85c0 -25 -21 -45 -45 -45s-45 20 -45 45v85h-141c-22 0 -37 16 -37 37
s16 38 37 38h141v91h-141c-22 0 -37 16 -37 37s16 38 37 38h98l-168 274c-5 8 -8 16 -8 26c0 28 22 47 48 47c22 0 34 -12 43 -28z" />
    <glyph glyph-name="section" unicode="&#xa7;" horiz-adv-x="529" 
d="M380 165c38 -26 65 -63 65 -120c0 -81 -65 -148 -193 -148c-73 0 -140 14 -189 45c-10 6 -16 20 -16 33c0 22 17 40 39 40c7 0 15 -3 21 -6c36 -18 82 -28 139 -28c77 0 113 25 113 70c0 98 -302 79 -302 262c0 74 47 109 98 126c-37 27 -64 64 -64 121
c0 81 65 148 193 148c55 0 106 -9 150 -27c15 -6 27 -20 27 -39c0 -21 -20 -40 -41 -40c-5 0 -10 1 -15 3c-32 12 -70 19 -115 19c-77 0 -113 -25 -113 -70c0 -98 302 -80 302 -262c0 -74 -47 -110 -99 -127zM320 198c42 10 75 35 75 88c0 67 -96 85 -180 121
c-41 -10 -74 -35 -74 -88c0 -67 95 -85 179 -121z" />
    <glyph glyph-name="dieresis" unicode="&#xa8;" horiz-adv-x="400" 
d="M114 677c28 0 51 -23 51 -51s-23 -51 -51 -51s-51 23 -51 51s23 51 51 51zM283 677c28 0 51 -23 51 -51s-23 -51 -51 -51s-51 23 -51 51s23 51 51 51z" />
    <glyph glyph-name="copyright" unicode="&#xa9;" horiz-adv-x="819" 
d="M410 -9c-198 0 -359 161 -359 358s161 358 359 358s358 -161 359 -358c-1 -197 -161 -358 -359 -358zM409 655c-168 0 -306 -138 -306 -306s138 -306 306 -306c170 0 308 138 308 306s-138 306 -308 306zM585 251c-32 -65 -90 -105 -169 -105c-114 0 -193 80 -193 203
s79 203 193 203c79 0 137 -40 169 -105c2 -4 3 -9 3 -13c0 -18 -14 -32 -32 -32c-10 0 -21 4 -31 22c-22 39 -56 67 -109 67c-84 0 -126 -67 -126 -142s42 -142 126 -142c53 0 87 28 109 67c10 18 21 22 31 22c18 0 32 -14 32 -32c0 -4 -1 -9 -3 -13z" />
    <glyph glyph-name="ordfeminine" unicode="&#xaa;" horiz-adv-x="485" 
d="M377 285c15 0 28 -13 28 -28s-13 -28 -28 -28h-283c-15 0 -28 13 -28 28s13 28 28 28h283zM242 553h76v2c0 61 -29 85 -85 85c-36 0 -66 -7 -91 -16c-3 -1 -7 -2 -10 -2c-18 0 -32 15 -32 32c0 13 10 25 23 30c34 13 74 24 121 24c102 0 146 -70 146 -139v-191
c0 -20 -16 -36 -36 -36s-36 16 -36 36v9c-21 -24 -60 -48 -121 -48c-62 0 -116 40 -116 107c0 66 52 107 161 107zM220 404c39 0 75 22 98 47v48h-68c-60 0 -97 -12 -97 -47c0 -26 16 -48 67 -48z" />
    <glyph glyph-name="guillemotleft" unicode="&#xab;" horiz-adv-x="585" 
d="M303 59c0 -23 -17 -39 -39 -39c-11 0 -22 4 -28 11l-164 181c-10 11 -18 27 -18 43s8 32 18 43l164 181c6 7 17 11 28 11c22 0 39 -16 39 -39c0 -10 -3 -19 -9 -26l-160 -170l160 -170c6 -7 9 -16 9 -26zM511 59c0 -23 -17 -39 -39 -39c-11 0 -22 4 -28 11l-164 181
c-10 11 -18 27 -18 43s8 32 18 43l164 181c6 7 17 11 28 11c22 0 39 -16 39 -39c0 -10 -3 -19 -9 -26l-160 -170l160 -170c6 -7 9 -16 9 -26z" />
    <glyph glyph-name="logicalnot" unicode="&#xac;" horiz-adv-x="579" 
d="M454 383c23 0 42 -19 42 -42v-136c0 -21 -17 -37 -38 -37s-37 16 -37 37v106h-312c-20 0 -36 16 -36 36s16 36 36 36h345z" />
    <glyph glyph-name="registered" unicode="&#xae;" horiz-adv-x="819" 
d="M410 708c198 0 359 -161 359 -359s-161 -359 -359 -359s-359 161 -359 359s161 359 359 359zM409 42c170 0 308 138 308 308c0 168 -138 306 -308 306c-168 0 -306 -138 -306 -306c0 -170 138 -308 306 -308zM583 428c0 -51 -35 -82 -74 -97c32 -11 69 -46 69 -125v-27
c0 -19 -15 -34 -34 -34s-34 15 -34 34v18c0 34 1 102 -73 102h-109v-121c0 -19 -15 -33 -34 -33s-33 14 -33 33v324c0 25 20 46 45 46h120c110 0 157 -52 157 -120zM423 358c55 0 94 23 94 68c0 38 -23 64 -96 64h-93v-132h95z" />
    <glyph glyph-name="macron" unicode="&#xaf;" horiz-adv-x="312" 
d="M272 648c17 0 30 -13 30 -30s-13 -30 -30 -30h-234c-17 0 -30 13 -30 30s13 30 30 30h234z" />
    <glyph glyph-name="degree" unicode="&#xb0;" horiz-adv-x="378" 
d="M189 708c76 0 137 -61 137 -137c0 -75 -61 -137 -137 -137c-75 0 -137 62 -137 137c0 76 62 137 137 137zM189 486c47 0 85 38 85 85s-38 85 -85 85s-85 -38 -85 -85s38 -85 85 -85z" />
    <glyph glyph-name="plusminus" unicode="&#xb1;" horiz-adv-x="606" 
d="M505 77c22 0 39 -17 39 -39s-17 -38 -39 -38h-405c-22 0 -38 16 -38 38s16 39 38 39h405zM100 342c-22 0 -38 16 -38 38s16 39 38 39h164v158c0 22 17 39 39 39s39 -17 39 -39v-158h163c22 0 39 -17 39 -39s-17 -38 -39 -38h-163v-158c0 -22 -17 -39 -39 -39
s-39 17 -39 39v158h-164z" />
    <glyph glyph-name="twosuperior" unicode="&#xb2;" horiz-adv-x="370" 
d="M297 510c17 0 30 -13 30 -30s-13 -29 -30 -29h-220c-23 0 -39 20 -39 40c0 112 222 158 222 238c0 33 -21 60 -78 60c-41 0 -73 -10 -95 -22c-4 -2 -8 -3 -13 -3c-16 0 -28 11 -28 28c0 10 4 19 14 25c30 19 75 33 130 33c78 0 133 -51 133 -117
c0 -112 -179 -169 -216 -223h190z" />
    <glyph glyph-name="threesuperior" unicode="&#xb3;" horiz-adv-x="370" 
d="M246 654c36 -11 76 -38 76 -97c0 -57 -39 -112 -146 -112c-53 0 -94 9 -123 25c-9 5 -17 15 -17 27c0 16 14 29 29 29c4 0 7 -1 11 -2c23 -7 53 -17 91 -17c52 0 92 15 92 52c0 42 -39 62 -112 62h-11c-17 0 -30 13 -30 30s13 30 30 30h5c57 0 105 14 105 58
c0 39 -42 50 -78 50c-37 0 -65 -9 -86 -19c-4 -2 -9 -3 -13 -3c-14 0 -28 11 -28 27c0 9 6 19 19 26c32 17 70 30 112 30c97 0 136 -47 136 -106c0 -53 -34 -79 -62 -90z" />
    <glyph glyph-name="acute" unicode="&#xb4;" horiz-adv-x="240" 
d="M139 722c22 0 37 -15 37 -37c0 -9 -3 -17 -10 -25l-69 -82c-6 -7 -12 -11 -22 -11c-16 0 -27 11 -27 27c0 8 5 16 7 19l51 90c6 11 16 19 33 19z" />
    <glyph glyph-name="mu" unicode="&#xb5;" horiz-adv-x="604" 
d="M495 515c25 0 45 -20 45 -45v-429c0 -26 -20 -46 -45 -46s-46 20 -46 46v41c-42 -46 -92 -92 -181 -92c-39 0 -71 12 -93 27v-190c0 -25 -21 -45 -46 -45s-45 20 -45 45v643c0 25 21 45 46 45s45 -20 45 -45v-274c0 -76 32 -122 110 -122c72 0 124 46 164 96v300
c0 25 21 45 46 45z" />
    <glyph glyph-name="paragraph" unicode="&#xb6;" horiz-adv-x="732" 
d="M648 698c22 0 40 -18 40 -40s-18 -39 -40 -39h-46v-803c0 -22 -18 -40 -40 -40s-39 18 -39 40v803h-112v-803c0 -22 -18 -40 -40 -40s-39 18 -39 40v368h-36c-142 0 -257 115 -257 257s115 257 257 257h352z" />
    <glyph glyph-name="periodcentered" unicode="&#xb7;" horiz-adv-x="260" 
d="M135 344c31 0 56 -25 56 -56v-6c0 -31 -25 -56 -56 -56h-10c-31 0 -56 25 -56 56v6c0 31 25 56 56 56h10z" />
    <glyph glyph-name="cedilla" unicode="&#xb8;" horiz-adv-x="307" 
d="M180 -59c45 0 77 -28 77 -70c0 -62 -40 -92 -111 -92c-22 0 -56 5 -90 26c-5 3 -11 10 -11 17c0 10 6 20 19 20c4 0 8 -2 10 -3c22 -12 42 -17 59 -17c32 0 57 11 57 46c0 20 -16 31 -36 31c-14 0 -26 -2 -44 -11c-2 -1 -6 -3 -10 -3c-9 0 -18 7 -18 16c0 7 2 11 4 14
l64 102h42l-46 -80c12 3 22 4 34 4z" />
    <glyph glyph-name="onesuperior" unicode="&#xb9;" horiz-adv-x="370" 
d="M282 510c17 0 30 -13 30 -30s-13 -29 -30 -29h-174c-17 0 -29 12 -29 29s12 30 29 30h60v265l-45 -22c-5 -2 -9 -4 -15 -4c-16 0 -30 13 -30 30c0 11 7 22 19 28l72 37c6 3 13 5 20 5c26 0 43 -19 43 -43v-296h50z" />
    <glyph glyph-name="ordmasculine" unicode="&#xba;" horiz-adv-x="514" 
d="M257 708c108 0 178 -74 178 -184s-70 -185 -178 -185s-178 75 -178 185s70 184 178 184zM257 403c48 0 106 34 106 122c0 87 -58 120 -106 120c-49 0 -106 -33 -106 -120c0 -88 57 -122 106 -122zM416 285c15 0 28 -13 28 -28s-13 -28 -28 -28h-318c-15 0 -28 13 -28 28
s13 28 28 28h318z" />
    <glyph glyph-name="guillemotright" unicode="&#xbb;" horiz-adv-x="585" 
d="M282 59c0 10 3 19 9 26l160 170l-160 170c-6 7 -9 16 -9 26c0 23 17 39 39 39c11 0 22 -4 28 -11l164 -181c10 -11 18 -27 18 -43s-8 -32 -18 -43l-164 -181c-6 -7 -17 -11 -28 -11c-22 0 -39 16 -39 39zM74 59c0 10 3 19 9 26l160 170l-160 170c-6 7 -9 16 -9 26
c0 23 17 39 39 39c11 0 22 -4 28 -11l164 -181c10 -11 18 -27 18 -43s-8 -32 -18 -43l-164 -181c-6 -7 -17 -11 -28 -11c-22 0 -39 16 -39 39z" />
    <glyph glyph-name="onequarter" unicode="&#xbc;" horiz-adv-x="940" 
d="M837 155c17 0 30 -13 30 -30s-13 -29 -30 -29h-36v-69c0 -18 -14 -32 -32 -32s-32 14 -32 32v69h-156c-23 0 -42 19 -42 42c0 11 4 20 11 29l165 208c9 11 20 21 36 21h8c24 0 42 -19 42 -42v-199h36zM610 155h127v162zM262 -24c-18 0 -34 14 -34 34c0 6 2 12 5 18
l414 682c6 10 17 14 28 14c18 0 34 -14 34 -34c0 -6 -2 -12 -5 -18l-414 -682c-6 -10 -17 -14 -28 -14zM289 369c17 0 30 -13 30 -30s-13 -29 -30 -29h-174c-17 0 -29 12 -29 29s12 30 29 30h60v265l-45 -22c-5 -2 -9 -4 -15 -4c-16 0 -30 13 -30 30c0 11 7 22 19 28l72 37
c6 3 13 5 20 5c26 0 43 -19 43 -43v-296h50z" />
    <glyph glyph-name="onehalf" unicode="&#xbd;" horiz-adv-x="940" 
d="M283 369c17 0 30 -13 30 -30s-13 -29 -30 -29h-174c-17 0 -29 12 -29 29s12 30 29 30h60v265l-45 -22c-5 -2 -9 -4 -15 -4c-16 0 -30 13 -30 30c0 11 7 22 19 28l72 37c6 3 13 5 20 5c26 0 43 -19 43 -43v-296h50zM256 -24c-18 0 -34 14 -34 34c0 6 2 12 5 18l414 682
c6 10 17 14 28 14c18 0 34 -14 34 -34c0 -6 -2 -12 -5 -18l-414 -682c-6 -10 -17 -14 -28 -14zM835 59c17 0 30 -13 30 -30s-13 -29 -30 -29h-220c-23 0 -39 20 -39 40c0 112 222 158 222 238c0 33 -21 60 -78 60c-41 0 -73 -10 -95 -22c-4 -2 -8 -3 -13 -3
c-16 0 -28 11 -28 28c0 10 4 19 14 25c30 19 75 33 130 33c78 0 133 -51 133 -117c0 -112 -179 -169 -216 -223h190z" />
    <glyph glyph-name="threequarters" unicode="&#xbe;" horiz-adv-x="940" 
d="M851 155c17 0 30 -13 30 -30s-13 -29 -30 -29h-36v-69c0 -18 -14 -32 -32 -32s-32 14 -32 32v69h-156c-23 0 -42 19 -42 42c0 11 4 20 11 29l165 208c9 11 20 21 36 21h8c24 0 42 -19 42 -42v-199h36zM624 155h127v162zM276 -24c-18 0 -34 14 -34 34c0 6 2 12 5 18
l414 682c6 10 17 14 28 14c18 0 34 -14 34 -34c0 -6 -2 -12 -5 -18l-414 -682c-6 -10 -17 -14 -28 -14zM273 513c36 -11 76 -38 76 -97c0 -57 -39 -112 -146 -112c-53 0 -94 9 -123 25c-9 5 -17 15 -17 27c0 16 14 29 29 29c4 0 7 -1 11 -2c23 -7 53 -17 91 -17
c52 0 92 15 92 52c0 42 -39 62 -112 62h-11c-17 0 -30 13 -30 30s13 30 30 30h5c57 0 105 14 105 58c0 39 -42 50 -78 50c-37 0 -65 -9 -86 -19c-4 -2 -9 -3 -13 -3c-14 0 -28 11 -28 27c0 9 6 19 19 26c32 17 70 30 112 30c97 0 136 -47 136 -106c0 -53 -34 -79 -62 -90z
" />
    <glyph glyph-name="questiondown" unicode="&#xbf;" horiz-adv-x="488" 
d="M265 -198c-136 0 -225 73 -225 189c0 160 187 166 187 294c0 22 21 39 44 39c25 0 44 -18 44 -39c0 -170 -185 -191 -185 -289c0 -68 42 -109 143 -109c45 0 93 11 128 33c6 4 17 8 25 8c22 0 40 -18 40 -40c0 -19 -12 -30 -25 -38c-56 -35 -110 -48 -176 -48zM273 395
c-33 0 -60 27 -60 59c0 33 27 60 60 60c32 0 59 -27 59 -60c0 -32 -27 -59 -59 -59z" />
    <glyph glyph-name="Agrave" unicode="&#xc0;" horiz-adv-x="697" 
d="M294 894c17 0 27 -8 33 -19l51 -90c2 -3 7 -11 7 -19c0 -16 -11 -27 -27 -27c-10 0 -16 4 -22 11l-69 82c-7 8 -10 16 -10 25c0 22 15 37 37 37zM667 60c3 -7 5 -14 5 -20c0 -25 -17 -45 -45 -45c-19 0 -35 10 -43 28l-65 156h-340l-65 -156c-8 -18 -24 -28 -43 -28
c-28 0 -45 20 -45 45c0 6 2 13 5 20l255 602c9 21 28 41 58 41h10c30 0 49 -20 58 -41zM214 262h270l-135 325z" />
    <glyph glyph-name="Aacute" unicode="&#xc1;" horiz-adv-x="697" 
d="M403 894c22 0 37 -15 37 -37c0 -9 -3 -17 -10 -25l-69 -82c-6 -7 -12 -11 -22 -11c-16 0 -27 11 -27 27c0 8 5 16 7 19l51 90c6 11 16 19 33 19zM667 60c3 -7 5 -14 5 -20c0 -25 -17 -45 -45 -45c-19 0 -35 10 -43 28l-65 156h-340l-65 -156c-8 -18 -24 -28 -43 -28
c-28 0 -45 20 -45 45c0 6 2 13 5 20l255 602c9 21 28 41 58 41h10c30 0 49 -20 58 -41zM214 262h270l-135 325z" />
    <glyph glyph-name="Acircumflex" unicode="&#xc2;" horiz-adv-x="697" 
d="M484 768c1 -15 -13 -30 -30 -30c-6 0 -14 3 -18 7l-87 74l-87 -74c-4 -4 -12 -7 -18 -7c-17 0 -31 15 -30 30c0 7 3 14 8 19l68 70c10 11 21 20 40 20h38c19 0 30 -9 40 -20l68 -70c5 -5 8 -12 8 -19zM667 60c3 -7 5 -14 5 -20c0 -25 -17 -45 -45 -45
c-19 0 -35 10 -43 28l-65 156h-340l-65 -156c-8 -18 -24 -28 -43 -28c-28 0 -45 20 -45 45c0 6 2 13 5 20l255 602c9 21 28 41 58 41h10c30 0 49 -20 58 -41zM214 262h270l-135 325z" />
    <glyph glyph-name="Atilde" unicode="&#xc3;" horiz-adv-x="697" 
d="M512 840c0 -43 -34 -95 -84 -95c-59 0 -102 48 -154 48c-20 0 -31 -13 -39 -32c-3 -9 -10 -18 -23 -18c-12 0 -23 10 -23 23c0 40 32 95 84 95c58 0 100 -47 154 -47c21 0 31 10 37 27c4 11 10 21 25 21c14 0 22 -10 23 -22zM667 60c3 -7 5 -14 5 -20
c0 -25 -17 -45 -45 -45c-19 0 -35 10 -43 28l-65 156h-340l-65 -156c-8 -18 -24 -28 -43 -28c-28 0 -45 20 -45 45c0 6 2 13 5 20l255 602c9 21 28 41 58 41h10c30 0 49 -20 58 -41zM214 262h270l-135 325z" />
    <glyph glyph-name="Adieresis" unicode="&#xc4;" horiz-adv-x="697" 
d="M667 60c3 -7 5 -14 5 -20c0 -25 -17 -45 -45 -45c-19 0 -35 10 -43 28l-65 156h-340l-65 -156c-8 -18 -24 -28 -43 -28c-28 0 -45 20 -45 45c0 6 2 13 5 20l255 602c9 21 28 41 58 41h10c30 0 49 -20 58 -41zM214 262h270l-135 325zM265 849c28 0 51 -23 51 -51
s-23 -51 -51 -51s-51 23 -51 51s23 51 51 51zM434 849c28 0 51 -23 51 -51s-23 -51 -51 -51s-51 23 -51 51s23 51 51 51z" />
    <glyph glyph-name="Aring" unicode="&#xc5;" horiz-adv-x="697" 
d="M349 918c52 0 94 -42 94 -94s-42 -94 -94 -94s-94 42 -94 94s42 94 94 94zM349 775c27 0 49 22 49 49s-22 49 -49 49s-49 -22 -49 -49s22 -49 49 -49zM667 60c3 -7 5 -14 5 -20c0 -25 -17 -45 -45 -45c-19 0 -35 10 -43 28l-65 156h-340l-65 -156c-8 -18 -24 -28 -43 -28
c-28 0 -45 20 -45 45c0 6 2 13 5 20l255 602c9 21 28 41 58 41h10c30 0 49 -20 58 -41zM214 262h270l-135 325z" />
    <glyph glyph-name="AE" unicode="&#xc6;" horiz-adv-x="1040" 
d="M945 85c24 0 43 -19 43 -43s-19 -42 -43 -42h-401c-25 0 -45 20 -45 45v134h-308l-102 -158c-9 -14 -23 -26 -41 -26c-26 0 -46 20 -46 45c0 11 4 19 10 28l399 605c10 15 27 25 46 25h488c24 0 43 -19 43 -43s-19 -42 -43 -42h-355v-221h319c24 0 43 -19 43 -43
s-19 -42 -43 -42h-319v-222h355zM499 262v351h-25l-229 -351h254z" />
    <glyph glyph-name="Ccedilla" unicode="&#xc7;" horiz-adv-x="698" 
d="M415 -59c45 0 77 -28 77 -70c0 -62 -40 -92 -111 -92c-22 0 -56 5 -90 26c-5 3 -11 10 -11 17c0 10 6 20 19 20c4 0 8 -2 10 -3c22 -12 42 -17 59 -17c32 0 57 11 57 46c0 20 -16 31 -36 31c-14 0 -26 -2 -44 -11c-2 -1 -6 -3 -10 -3c-9 0 -18 7 -18 16c0 7 2 11 4 14
l48 77c-181 16 -313 148 -313 357c0 223 151 359 350 359c98 0 166 -27 228 -62c13 -7 21 -17 22 -36c1 -21 -15 -40 -40 -40c-5 0 -12 1 -18 4c-53 28 -105 47 -183 47c-177 0 -268 -118 -268 -272s91 -272 268 -272c78 0 130 19 183 47c6 3 13 4 18 4c25 0 41 -19 40 -40
c-1 -19 -9 -29 -22 -36c-61 -35 -128 -61 -223 -62l-30 -53c12 3 22 4 34 4z" />
    <glyph glyph-name="Egrave" unicode="&#xc8;" horiz-adv-x="638" 
d="M543 85c24 0 43 -19 43 -43s-19 -42 -43 -42h-401c-25 0 -45 20 -45 45v607c0 25 20 46 45 46h401c24 0 43 -19 43 -43s-19 -42 -43 -42h-355v-221h319c24 0 43 -19 43 -43s-19 -42 -43 -42h-319v-222h355zM289 894c17 0 27 -8 33 -19l51 -90c2 -3 7 -11 7 -19
c0 -16 -11 -27 -27 -27c-10 0 -16 4 -22 11l-69 82c-7 8 -10 16 -10 25c0 22 15 37 37 37z" />
    <glyph glyph-name="Eacute" unicode="&#xc9;" horiz-adv-x="638" 
d="M543 85c24 0 43 -19 43 -43s-19 -42 -43 -42h-401c-25 0 -45 20 -45 45v607c0 25 20 46 45 46h401c24 0 43 -19 43 -43s-19 -42 -43 -42h-355v-221h319c24 0 43 -19 43 -43s-19 -42 -43 -42h-319v-222h355zM393 894c22 0 37 -15 37 -37c0 -9 -3 -17 -10 -25l-69 -82
c-6 -7 -12 -11 -22 -11c-16 0 -27 11 -27 27c0 8 5 16 7 19l51 90c6 11 16 19 33 19z" />
    <glyph glyph-name="Ecircumflex" unicode="&#xca;" horiz-adv-x="638" 
d="M543 85c24 0 43 -19 43 -43s-19 -42 -43 -42h-401c-25 0 -45 20 -45 45v607c0 25 20 46 45 46h401c24 0 43 -19 43 -43s-19 -42 -43 -42h-355v-221h319c24 0 43 -19 43 -43s-19 -42 -43 -42h-319v-222h355zM484 768c1 -15 -13 -30 -30 -30c-6 0 -14 3 -18 7l-87 74
l-87 -74c-4 -4 -12 -7 -18 -7c-17 0 -31 15 -30 30c0 7 3 14 8 19l68 70c10 11 21 20 40 20h38c19 0 30 -9 40 -20l68 -70c5 -5 8 -12 8 -19z" />
    <glyph glyph-name="Edieresis" unicode="&#xcb;" horiz-adv-x="638" 
d="M543 85c24 0 43 -19 43 -43s-19 -42 -43 -42h-401c-25 0 -45 20 -45 45v607c0 25 20 46 45 46h401c24 0 43 -19 43 -43s-19 -42 -43 -42h-355v-221h319c24 0 43 -19 43 -43s-19 -42 -43 -42h-319v-222h355zM254 849c28 0 51 -23 51 -51s-23 -51 -51 -51s-51 23 -51 51
s23 51 51 51zM423 849c28 0 51 -23 51 -51s-23 -51 -51 -51s-51 23 -51 51s23 51 51 51z" />
    <glyph glyph-name="Igrave" unicode="&#xcc;" horiz-adv-x="285" 
d="M142 703c25 0 46 -21 46 -46v-617c0 -25 -21 -45 -46 -45s-45 20 -45 45v617c0 25 20 46 45 46zM93 894c17 0 27 -8 33 -19l51 -90c2 -3 7 -11 7 -19c0 -16 -11 -27 -27 -27c-10 0 -16 4 -22 11l-69 82c-7 8 -10 16 -10 25c0 22 15 37 37 37z" />
    <glyph glyph-name="Iacute" unicode="&#xcd;" horiz-adv-x="285" 
d="M142 703c25 0 46 -21 46 -46v-617c0 -25 -21 -45 -46 -45s-45 20 -45 45v617c0 25 20 46 45 46zM192 894c22 0 37 -15 37 -37c0 -9 -3 -17 -10 -25l-69 -82c-6 -7 -12 -11 -22 -11c-16 0 -27 11 -27 27c0 8 5 16 7 19l51 90c6 11 16 19 33 19z" />
    <glyph glyph-name="Icircumflex" unicode="&#xce;" horiz-adv-x="285" 
d="M142 703c25 0 46 -21 46 -46v-617c0 -25 -21 -45 -46 -45s-45 20 -45 45v617c0 25 20 46 45 46zM277 768c1 -15 -13 -30 -30 -30c-6 0 -14 3 -18 7l-87 74l-87 -74c-4 -4 -12 -7 -18 -7c-17 0 -31 15 -30 30c0 7 3 14 8 19l68 70c10 11 21 20 40 20h38c19 0 30 -9 40 -20
l68 -70c5 -5 8 -12 8 -19z" />
    <glyph glyph-name="Idieresis" unicode="&#xcf;" horiz-adv-x="285" 
d="M142 703c25 0 46 -21 46 -46v-617c0 -25 -21 -45 -46 -45s-45 20 -45 45v617c0 25 20 46 45 46zM58 849c28 0 51 -23 51 -51s-23 -51 -51 -51s-51 23 -51 51s23 51 51 51zM227 849c28 0 51 -23 51 -51s-23 -51 -51 -51s-51 23 -51 51s23 51 51 51z" />
    <glyph glyph-name="Eth" unicode="&#xd0;" horiz-adv-x="757" 
d="M350 698c239 0 353 -180 353 -349c0 -168 -114 -349 -353 -349h-201c-25 0 -45 20 -45 45v270h-54c-19 0 -33 14 -33 33s14 34 33 34h54v270c0 25 20 46 45 46h201zM339 85c167 0 274 108 274 264s-107 264 -274 264h-144v-231h117c19 0 34 -15 34 -34s-15 -33 -34 -33
h-117v-230h144z" />
    <glyph glyph-name="Ntilde" unicode="&#xd1;" horiz-adv-x="803" 
d="M660 703c25 0 46 -21 46 -46v-597c0 -36 -30 -65 -66 -65h-12c-22 0 -41 11 -53 27l-387 559v-541c0 -25 -21 -45 -46 -45s-45 20 -45 45v597c0 36 29 66 65 66h13c22 0 41 -12 55 -30l385 -556v540c0 25 20 46 45 46zM568 840c0 -43 -34 -95 -84 -95
c-59 0 -102 48 -154 48c-20 0 -31 -13 -39 -32c-3 -9 -10 -18 -23 -18c-12 0 -23 10 -23 23c0 40 32 95 84 95c58 0 100 -47 154 -47c21 0 31 10 37 27c4 11 10 21 25 21c14 0 22 -10 23 -22z" />
    <glyph glyph-name="Ograve" unicode="&#xd2;" horiz-adv-x="811" 
d="M406 708c213 0 347 -150 351 -359c-4 -209 -138 -359 -351 -359c-214 0 -347 150 -351 359c4 209 137 359 351 359zM406 75c165 0 260 120 260 274s-95 274 -260 274c-166 0 -260 -120 -260 -274s94 -274 260 -274zM359 894c17 0 27 -8 33 -19l51 -90c2 -3 7 -11 7 -19
c0 -16 -11 -27 -27 -27c-10 0 -16 4 -22 11l-69 82c-7 8 -10 16 -10 25c0 22 15 37 37 37z" />
    <glyph glyph-name="Oacute" unicode="&#xd3;" horiz-adv-x="811" 
d="M406 708c213 0 347 -150 351 -359c-4 -209 -138 -359 -351 -359c-214 0 -347 150 -351 359c4 209 137 359 351 359zM406 75c165 0 260 120 260 274s-95 274 -260 274c-166 0 -260 -120 -260 -274s94 -274 260 -274zM453 894c22 0 37 -15 37 -37c0 -9 -3 -17 -10 -25
l-69 -82c-6 -7 -12 -11 -22 -11c-16 0 -27 11 -27 27c0 8 5 16 7 19l51 90c6 11 16 19 33 19z" />
    <glyph glyph-name="Ocircumflex" unicode="&#xd4;" horiz-adv-x="811" 
d="M406 708c213 0 347 -150 351 -359c-4 -209 -138 -359 -351 -359c-214 0 -347 150 -351 359c4 209 137 359 351 359zM406 75c165 0 260 120 260 274s-95 274 -260 274c-166 0 -260 -120 -260 -274s94 -274 260 -274zM541 768c1 -15 -13 -30 -30 -30c-6 0 -14 3 -18 7
l-87 74l-87 -74c-4 -4 -12 -7 -18 -7c-17 0 -31 15 -30 30c0 7 3 14 8 19l68 70c10 11 21 20 40 20h38c19 0 30 -9 40 -20l68 -70c5 -5 8 -12 8 -19z" />
    <glyph glyph-name="Otilde" unicode="&#xd5;" horiz-adv-x="811" 
d="M406 708c213 0 347 -150 351 -359c-4 -209 -138 -359 -351 -359c-214 0 -347 150 -351 359c4 209 137 359 351 359zM406 75c165 0 260 120 260 274s-95 274 -260 274c-166 0 -260 -120 -260 -274s94 -274 260 -274zM568 840c0 -43 -34 -95 -84 -95c-59 0 -102 48 -154 48
c-20 0 -31 -13 -39 -32c-3 -9 -10 -18 -23 -18c-12 0 -23 10 -23 23c0 40 32 95 84 95c58 0 100 -47 154 -47c21 0 31 10 37 27c4 11 10 21 25 21c14 0 22 -10 23 -22z" />
    <glyph glyph-name="Odieresis" unicode="&#xd6;" horiz-adv-x="811" 
d="M406 708c213 0 347 -150 351 -359c-4 -209 -138 -359 -351 -359c-214 0 -347 150 -351 359c4 209 137 359 351 359zM406 75c165 0 260 120 260 274s-95 274 -260 274c-166 0 -260 -120 -260 -274s94 -274 260 -274zM322 849c28 0 51 -23 51 -51s-23 -51 -51 -51
s-51 23 -51 51s23 51 51 51zM491 849c28 0 51 -23 51 -51s-23 -51 -51 -51s-51 23 -51 51s23 51 51 51z" />
    <glyph glyph-name="multiply" unicode="&#xd7;" horiz-adv-x="563" 
d="M97 480c10 0 20 -5 27 -12l157 -157l157 157c7 7 17 12 27 12c22 0 38 -18 38 -38c0 -10 -5 -20 -12 -27l-157 -157l157 -157c7 -7 12 -17 12 -27c0 -20 -16 -38 -38 -38c-10 0 -20 5 -27 12l-157 157l-157 -157c-7 -7 -17 -12 -27 -12c-22 0 -38 18 -38 38
c0 10 5 20 12 27l157 157l-157 157c-7 7 -12 17 -12 27c0 20 16 38 38 38z" />
    <glyph glyph-name="Oslash" unicode="&#xd8;" horiz-adv-x="811" 
d="M406 708c72 0 136 -18 188 -49l40 58c5 7 13 10 21 10c15 0 25 -11 25 -24c0 -6 -2 -11 -6 -17l-39 -56c76 -64 119 -163 122 -281c-4 -209 -138 -359 -351 -359c-72 0 -135 17 -187 47l-40 -57c-5 -7 -13 -10 -21 -10c-15 0 -25 11 -25 24c0 6 2 11 6 17l39 55
c-77 64 -121 164 -123 283c4 209 137 359 351 359zM146 349c0 -86 29 -160 83 -210l314 449c-38 22 -84 35 -137 35c-166 0 -260 -120 -260 -274zM406 75c165 0 260 120 260 274c0 84 -29 159 -82 209l-315 -449c38 -22 84 -34 137 -34z" />
    <glyph glyph-name="Ugrave" unicode="&#xd9;" horiz-adv-x="758" 
d="M620 703c25 0 46 -21 46 -46v-395c0 -188 -153 -272 -287 -272s-287 84 -287 272v395c0 25 20 46 45 46s46 -21 46 -46v-398c0 -125 98 -186 196 -186s196 61 196 186v398c0 25 20 46 45 46zM338 894c17 0 27 -8 33 -19l51 -90c2 -3 7 -11 7 -19c0 -16 -11 -27 -27 -27
c-10 0 -16 4 -22 11l-69 82c-7 8 -10 16 -10 25c0 22 15 37 37 37z" />
    <glyph glyph-name="Uacute" unicode="&#xda;" horiz-adv-x="758" 
d="M620 703c25 0 46 -21 46 -46v-395c0 -188 -153 -272 -287 -272s-287 84 -287 272v395c0 25 20 46 45 46s46 -21 46 -46v-398c0 -125 98 -186 196 -186s196 61 196 186v398c0 25 20 46 45 46zM420 894c22 0 37 -15 37 -37c0 -9 -3 -17 -10 -25l-69 -82
c-6 -7 -12 -11 -22 -11c-16 0 -27 11 -27 27c0 8 5 16 7 19l51 90c6 11 16 19 33 19z" />
    <glyph glyph-name="Ucircumflex" unicode="&#xdb;" horiz-adv-x="758" 
d="M620 703c25 0 46 -21 46 -46v-395c0 -188 -153 -272 -287 -272s-287 84 -287 272v395c0 25 20 46 45 46s46 -21 46 -46v-398c0 -125 98 -186 196 -186s196 61 196 186v398c0 25 20 46 45 46zM514 768c1 -15 -13 -30 -30 -30c-6 0 -14 3 -18 7l-87 74l-87 -74
c-4 -4 -12 -7 -18 -7c-17 0 -31 15 -30 30c0 7 3 14 8 19l68 70c10 11 21 20 40 20h38c19 0 30 -9 40 -20l68 -70c5 -5 8 -12 8 -19z" />
    <glyph glyph-name="Udieresis" unicode="&#xdc;" horiz-adv-x="758" 
d="M620 703c25 0 46 -21 46 -46v-395c0 -188 -153 -272 -287 -272s-287 84 -287 272v395c0 25 20 46 45 46s46 -21 46 -46v-398c0 -125 98 -186 196 -186s196 61 196 186v398c0 25 20 46 45 46zM295 849c28 0 51 -23 51 -51s-23 -51 -51 -51s-51 23 -51 51s23 51 51 51z
M464 849c28 0 51 -23 51 -51s-23 -51 -51 -51s-51 23 -51 51s23 51 51 51z" />
    <glyph glyph-name="Yacute" unicode="&#xdd;" horiz-adv-x="645" 
d="M323 376l209 304c10 15 23 23 40 23c26 0 45 -21 44 -46c0 -10 -3 -19 -8 -27l-240 -335v-255c0 -25 -20 -45 -45 -45s-46 20 -46 45v255l-239 335c-5 8 -8 17 -8 27c-1 25 18 46 44 46c17 0 30 -8 40 -23zM373 894c22 0 37 -15 37 -37c0 -9 -3 -17 -10 -25l-69 -82
c-6 -7 -12 -11 -22 -11c-16 0 -27 11 -27 27c0 8 5 16 7 19l51 90c6 11 16 19 33 19z" />
    <glyph glyph-name="Thorn" unicode="&#xde;" horiz-adv-x="671" 
d="M370 586c202 0 267 -116 267 -222s-65 -222 -267 -222h-182v-102c0 -25 -21 -45 -46 -45s-45 20 -45 45v617c0 25 20 46 45 46s46 -21 46 -46v-71h182zM361 228c149 0 185 71 185 136s-36 136 -185 136h-173v-272h173z" />
    <glyph glyph-name="germandbls" unicode="&#xdf;" horiz-adv-x="610" 
d="M414 352c62 -15 149 -60 149 -178c0 -125 -95 -184 -190 -184c-44 0 -82 7 -111 17c-18 6 -32 18 -32 38c0 22 16 39 39 39c5 0 10 -1 15 -3c21 -7 46 -10 74 -10c38 0 114 20 114 114c0 78 -74 124 -172 124c-24 0 -38 15 -38 37c0 20 16 34 38 37c82 9 133 55 133 119
c0 75 -49 121 -129 121c-65 0 -134 -29 -134 -148v-434c0 -25 -21 -45 -46 -45s-45 20 -45 45v445c0 143 94 222 226 222c102 0 219 -60 219 -196c0 -102 -57 -143 -110 -160z" />
    <glyph glyph-name="agrave" unicode="&#xe0;" horiz-adv-x="555" 
d="M271 520c146 0 209 -99 209 -197v-283c0 -25 -21 -45 -46 -45s-45 20 -45 45v26c-36 -37 -94 -76 -188 -76c-87 0 -163 56 -163 150s74 162 230 162h121v8c0 89 -44 124 -134 124c-56 0 -96 -12 -133 -24c-4 -1 -9 -2 -13 -2c-20 0 -37 16 -37 38c0 17 9 31 26 38
c47 20 102 36 173 36zM235 70c62 0 120 36 154 75v84h-109c-94 0 -151 -22 -151 -79c0 -43 25 -80 106 -80zM226 722c17 0 27 -8 33 -19l51 -90c2 -3 7 -11 7 -19c0 -16 -11 -27 -27 -27c-10 0 -16 4 -22 11l-69 82c-7 8 -10 16 -10 25c0 22 15 37 37 37z" />
    <glyph glyph-name="aacute" unicode="&#xe1;" horiz-adv-x="555" 
d="M271 520c146 0 209 -99 209 -197v-283c0 -25 -21 -45 -46 -45s-45 20 -45 45v26c-36 -37 -94 -76 -188 -76c-87 0 -163 56 -163 150s74 162 230 162h121v8c0 89 -44 124 -134 124c-56 0 -96 -12 -133 -24c-4 -1 -9 -2 -13 -2c-20 0 -37 16 -37 38c0 17 9 31 26 38
c47 20 102 36 173 36zM235 70c62 0 120 36 154 75v84h-109c-94 0 -151 -22 -151 -79c0 -43 25 -80 106 -80zM315 722c22 0 37 -15 37 -37c0 -9 -3 -17 -10 -25l-69 -82c-6 -7 -12 -11 -22 -11c-16 0 -27 11 -27 27c0 8 5 16 7 19l51 90c6 11 16 19 33 19z" />
    <glyph glyph-name="acircumflex" unicode="&#xe2;" horiz-adv-x="555" 
d="M271 520c146 0 209 -99 209 -197v-283c0 -25 -21 -45 -46 -45s-45 20 -45 45v26c-36 -37 -94 -76 -188 -76c-87 0 -163 56 -163 150s74 162 230 162h121v8c0 89 -44 124 -134 124c-56 0 -96 -12 -133 -24c-4 -1 -9 -2 -13 -2c-20 0 -37 16 -37 38c0 17 9 31 26 38
c47 20 102 36 173 36zM235 70c62 0 120 36 154 75v84h-109c-94 0 -151 -22 -151 -79c0 -43 25 -80 106 -80zM408 596c1 -15 -13 -30 -30 -30c-6 0 -14 3 -18 7l-87 74l-87 -74c-4 -4 -12 -7 -18 -7c-17 0 -31 15 -30 30c0 7 3 14 8 19l68 70c10 11 21 20 40 20h38
c19 0 30 -9 40 -20l68 -70c5 -5 8 -12 8 -19z" />
    <glyph glyph-name="atilde" unicode="&#xe3;" horiz-adv-x="555" 
d="M271 520c146 0 209 -99 209 -197v-283c0 -25 -21 -45 -46 -45s-45 20 -45 45v26c-36 -37 -94 -76 -188 -76c-87 0 -163 56 -163 150s74 162 230 162h121v8c0 89 -44 124 -134 124c-56 0 -96 -12 -133 -24c-4 -1 -9 -2 -13 -2c-20 0 -37 16 -37 38c0 17 9 31 26 38
c47 20 102 36 173 36zM235 70c62 0 120 36 154 75v84h-109c-94 0 -151 -22 -151 -79c0 -43 25 -80 106 -80zM432 668c0 -43 -34 -95 -84 -95c-59 0 -102 48 -154 48c-20 0 -31 -13 -39 -32c-3 -9 -10 -18 -23 -18c-12 0 -23 10 -23 23c0 40 32 95 84 95
c58 0 100 -47 154 -47c21 0 31 10 37 27c4 11 10 21 25 21c14 0 22 -10 23 -22z" />
    <glyph glyph-name="adieresis" unicode="&#xe4;" horiz-adv-x="555" 
d="M271 520c146 0 209 -99 209 -197v-283c0 -25 -21 -45 -46 -45s-45 20 -45 45v26c-36 -37 -94 -76 -188 -76c-87 0 -163 56 -163 150s74 162 230 162h121v8c0 89 -44 124 -134 124c-56 0 -96 -12 -133 -24c-4 -1 -9 -2 -13 -2c-20 0 -37 16 -37 38c0 17 9 31 26 38
c47 20 102 36 173 36zM235 70c62 0 120 36 154 75v84h-109c-94 0 -151 -22 -151 -79c0 -43 25 -80 106 -80zM190 677c28 0 51 -23 51 -51s-23 -51 -51 -51s-51 23 -51 51s23 51 51 51zM359 677c28 0 51 -23 51 -51s-23 -51 -51 -51s-51 23 -51 51s23 51 51 51z" />
    <glyph glyph-name="aring" unicode="&#xe5;" horiz-adv-x="555" 
d="M271 520c146 0 209 -99 209 -197v-283c0 -25 -21 -45 -46 -45s-45 20 -45 45v26c-36 -37 -94 -76 -188 -76c-87 0 -163 56 -163 150s74 162 230 162h121v8c0 89 -44 124 -134 124c-56 0 -96 -12 -133 -24c-4 -1 -9 -2 -13 -2c-20 0 -37 16 -37 38c0 17 9 31 26 38
c47 20 102 36 173 36zM235 70c62 0 120 36 154 75v84h-109c-94 0 -151 -22 -151 -79c0 -43 25 -80 106 -80zM269 739c52 0 94 -42 94 -94s-42 -94 -94 -94s-94 42 -94 94s42 94 94 94zM269 596c27 0 49 22 49 49s-22 49 -49 49s-49 -22 -49 -49s22 -49 49 -49z" />
    <glyph glyph-name="ae" unicode="&#xe6;" horiz-adv-x="904" 
d="M861 269c0 -22 -16 -43 -44 -43h-344c10 -90 61 -151 177 -151c60 0 98 12 135 31c6 3 11 4 18 4c21 0 40 -16 40 -39c0 -16 -12 -29 -26 -37c-44 -25 -88 -44 -175 -44c-91 0 -160 31 -203 87c-47 -72 -138 -87 -206 -87c-106 0 -196 56 -196 150s74 159 230 159h121v11
c0 89 -44 124 -134 124c-56 0 -96 -12 -133 -24c-4 -1 -9 -2 -13 -2c-20 0 -37 16 -37 38c0 17 9 31 26 38c47 20 102 36 173 36c87 0 141 -35 171 -84c38 51 97 84 181 84c149 0 239 -107 239 -251zM388 169v57h-109c-94 0 -151 -19 -151 -76c0 -43 42 -80 123 -80
c62 0 137 18 137 99zM473 299h298c-6 104 -85 144 -149 144s-143 -40 -149 -144z" />
    <glyph glyph-name="ccedilla" unicode="&#xe7;" horiz-adv-x="537" 
d="M319 -59c45 0 77 -28 77 -70c0 -62 -40 -92 -111 -92c-22 0 -56 5 -90 26c-5 3 -11 10 -11 17c0 10 6 20 19 20c4 0 8 -2 10 -3c22 -12 42 -17 59 -17c32 0 57 11 57 46c0 20 -16 31 -36 31c-14 0 -26 -2 -44 -11c-2 -1 -6 -3 -10 -3c-9 0 -18 7 -18 16c0 7 2 11 4 14
l48 78c-125 16 -227 110 -227 262c0 167 125 265 267 265c79 0 129 -26 163 -48c12 -8 20 -20 20 -35c0 -19 -17 -40 -38 -40c-8 0 -13 1 -22 6c-35 18 -63 32 -115 32c-116 0 -184 -73 -184 -180s68 -180 184 -180c52 0 80 14 115 32c9 5 14 6 22 6c21 0 38 -21 38 -40
c0 -15 -8 -27 -20 -35c-34 -22 -83 -47 -161 -48l-30 -53c12 3 22 4 34 4z" />
    <glyph glyph-name="egrave" unicode="&#xe8;" horiz-adv-x="570" 
d="M469 110c21 0 40 -16 40 -39c0 -16 -12 -29 -26 -37c-44 -25 -88 -44 -175 -44c-163 0 -259 97 -259 265c0 135 73 265 239 265c154 0 238 -119 238 -252c0 -25 -18 -45 -46 -45h-339c10 -90 67 -148 175 -148c60 0 98 12 135 31c6 3 11 4 18 4zM288 443
c-64 0 -141 -42 -147 -146h295c-6 104 -84 146 -148 146zM246 722c17 0 27 -8 33 -19l51 -90c2 -3 7 -11 7 -19c0 -16 -11 -27 -27 -27c-10 0 -16 4 -22 11l-69 82c-7 8 -10 16 -10 25c0 22 15 37 37 37z" />
    <glyph glyph-name="eacute" unicode="&#xe9;" horiz-adv-x="570" 
d="M469 110c21 0 40 -16 40 -39c0 -16 -12 -29 -26 -37c-44 -25 -88 -44 -175 -44c-163 0 -259 97 -259 265c0 135 73 265 239 265c154 0 238 -119 238 -252c0 -25 -18 -45 -46 -45h-339c10 -90 67 -148 175 -148c60 0 98 12 135 31c6 3 11 4 18 4zM288 443
c-64 0 -141 -42 -147 -146h295c-6 104 -84 146 -148 146zM329 722c22 0 37 -15 37 -37c0 -9 -3 -17 -10 -25l-69 -82c-6 -7 -12 -11 -22 -11c-16 0 -27 11 -27 27c0 8 5 16 7 19l51 90c6 11 16 19 33 19z" />
    <glyph glyph-name="ecircumflex" unicode="&#xea;" horiz-adv-x="570" 
d="M469 110c21 0 40 -16 40 -39c0 -16 -12 -29 -26 -37c-44 -25 -88 -44 -175 -44c-163 0 -259 97 -259 265c0 135 73 265 239 265c154 0 238 -119 238 -252c0 -25 -18 -45 -46 -45h-339c10 -90 67 -148 175 -148c60 0 98 12 135 31c6 3 11 4 18 4zM288 443
c-64 0 -141 -42 -147 -146h295c-6 104 -84 146 -148 146zM422 596c1 -15 -13 -30 -30 -30c-6 0 -14 3 -18 7l-87 74l-87 -74c-4 -4 -12 -7 -18 -7c-17 0 -31 15 -30 30c0 7 3 14 8 19l68 70c10 11 21 20 40 20h38c19 0 30 -9 40 -20l68 -70c5 -5 8 -12 8 -19z" />
    <glyph glyph-name="edieresis" unicode="&#xeb;" horiz-adv-x="570" 
d="M469 110c21 0 40 -16 40 -39c0 -16 -12 -29 -26 -37c-44 -25 -88 -44 -175 -44c-163 0 -259 97 -259 265c0 135 73 265 239 265c154 0 238 -119 238 -252c0 -25 -18 -45 -46 -45h-339c10 -90 67 -148 175 -148c60 0 98 12 135 31c6 3 11 4 18 4zM288 443
c-64 0 -141 -42 -147 -146h295c-6 104 -84 146 -148 146zM203 677c28 0 51 -23 51 -51s-23 -51 -51 -51s-51 23 -51 51s23 51 51 51zM372 677c28 0 51 -23 51 -51s-23 -51 -51 -51s-51 23 -51 51s23 51 51 51z" />
    <glyph glyph-name="igrave" unicode="&#xec;" horiz-adv-x="257" 
d="M128 515c26 0 46 -20 46 -46v-429c0 -25 -20 -45 -46 -45c-25 0 -45 20 -45 45v429c0 26 20 46 45 46zM79 722c17 0 27 -8 33 -19l51 -90c2 -3 7 -11 7 -19c0 -16 -11 -27 -27 -27c-10 0 -16 4 -22 11l-69 82c-7 8 -10 16 -10 25c0 22 15 37 37 37z" />
    <glyph glyph-name="iacute" unicode="&#xed;" horiz-adv-x="257" 
d="M128 515c26 0 46 -20 46 -46v-429c0 -25 -20 -45 -46 -45c-25 0 -45 20 -45 45v429c0 26 20 46 45 46zM178 722c22 0 37 -15 37 -37c0 -9 -3 -17 -10 -25l-69 -82c-6 -7 -12 -11 -22 -11c-16 0 -27 11 -27 27c0 8 5 16 7 19l51 90c6 11 16 19 33 19z" />
    <glyph glyph-name="icircumflex" unicode="&#xee;" horiz-adv-x="257" 
d="M128 515c26 0 46 -20 46 -46v-429c0 -25 -20 -45 -46 -45c-25 0 -45 20 -45 45v429c0 26 20 46 45 46zM263 596c1 -15 -13 -30 -30 -30c-6 0 -14 3 -18 7l-87 74l-87 -74c-4 -4 -12 -7 -18 -7c-17 0 -31 15 -30 30c0 7 3 14 8 19l68 70c10 11 21 20 40 20h38
c19 0 30 -9 40 -20l68 -70c5 -5 8 -12 8 -19z" />
    <glyph glyph-name="idieresis" unicode="&#xef;" horiz-adv-x="257" 
d="M128 515c26 0 46 -20 46 -46v-429c0 -25 -20 -45 -46 -45c-25 0 -45 20 -45 45v429c0 26 20 46 45 46zM44 677c28 0 51 -23 51 -51s-23 -51 -51 -51s-51 23 -51 51s23 51 51 51zM213 677c28 0 51 -23 51 -51s-23 -51 -51 -51s-51 23 -51 51s23 51 51 51z" />
    <glyph glyph-name="eth" unicode="&#xf0;" horiz-adv-x="599" 
d="M362 637c93 -84 184 -207 184 -363c0 -154 -70 -284 -249 -284c-150 0 -248 104 -248 258c0 133 84 257 234 257c45 0 82 -12 113 -28c-29 43 -67 83 -107 117l-84 -49c-5 -3 -11 -6 -17 -6c-14 0 -25 11 -25 25c0 10 6 18 15 23l68 40c-25 17 -50 34 -76 48
c-12 6 -20 21 -20 35c0 24 19 42 42 42c8 0 15 -2 22 -6c28 -17 67 -42 108 -75l68 41c5 3 9 5 15 5c14 0 25 -11 25 -25c0 -9 -4 -17 -12 -22zM297 70c74 0 161 50 161 182c0 130 -87 179 -161 179s-160 -49 -160 -179c0 -132 86 -182 160 -182z" />
    <glyph glyph-name="ntilde" unicode="&#xf1;" horiz-adv-x="609" 
d="M356 520c114 0 179 -89 179 -196v-284c0 -25 -21 -45 -46 -45s-45 20 -45 45v274c0 76 -32 122 -110 122c-72 0 -124 -46 -164 -96v-300c0 -25 -21 -45 -46 -45s-45 20 -45 45v429c0 26 20 46 45 46s46 -20 46 -46v-41c42 46 97 92 186 92zM472 668
c0 -43 -34 -95 -84 -95c-59 0 -102 48 -154 48c-20 0 -31 -13 -39 -32c-3 -9 -10 -18 -23 -18c-12 0 -23 10 -23 23c0 40 32 95 84 95c58 0 100 -47 154 -47c21 0 31 10 37 27c4 11 10 21 25 21c14 0 22 -10 23 -22z" />
    <glyph glyph-name="ograve" unicode="&#xf2;" horiz-adv-x="608" 
d="M304 520c154 0 256 -107 256 -265s-102 -265 -256 -265c-155 0 -256 107 -256 265s101 265 256 265zM304 73c76 0 165 50 165 183c0 132 -89 181 -165 181c-77 0 -165 -49 -165 -181c0 -133 88 -183 165 -183zM255 722c17 0 27 -8 33 -19l51 -90c2 -3 7 -11 7 -19
c0 -16 -11 -27 -27 -27c-10 0 -16 4 -22 11l-69 82c-7 8 -10 16 -10 25c0 22 15 37 37 37z" />
    <glyph glyph-name="oacute" unicode="&#xf3;" horiz-adv-x="608" 
d="M304 520c154 0 256 -107 256 -265s-102 -265 -256 -265c-155 0 -256 107 -256 265s101 265 256 265zM304 73c76 0 165 50 165 183c0 132 -89 181 -165 181c-77 0 -165 -49 -165 -181c0 -133 88 -183 165 -183zM353 722c22 0 37 -15 37 -37c0 -9 -3 -17 -10 -25l-69 -82
c-6 -7 -12 -11 -22 -11c-16 0 -27 11 -27 27c0 8 5 16 7 19l51 90c6 11 16 19 33 19z" />
    <glyph glyph-name="ocircumflex" unicode="&#xf4;" horiz-adv-x="608" 
d="M304 520c154 0 256 -107 256 -265s-102 -265 -256 -265c-155 0 -256 107 -256 265s101 265 256 265zM304 73c76 0 165 50 165 183c0 132 -89 181 -165 181c-77 0 -165 -49 -165 -181c0 -133 88 -183 165 -183zM439 596c1 -15 -13 -30 -30 -30c-6 0 -14 3 -18 7l-87 74
l-87 -74c-4 -4 -12 -7 -18 -7c-17 0 -31 15 -30 30c0 7 3 14 8 19l68 70c10 11 21 20 40 20h38c19 0 30 -9 40 -20l68 -70c5 -5 8 -12 8 -19z" />
    <glyph glyph-name="otilde" unicode="&#xf5;" horiz-adv-x="608" 
d="M304 520c154 0 256 -107 256 -265s-102 -265 -256 -265c-155 0 -256 107 -256 265s101 265 256 265zM304 73c76 0 165 50 165 183c0 132 -89 181 -165 181c-77 0 -165 -49 -165 -181c0 -133 88 -183 165 -183zM467 668c0 -43 -34 -95 -84 -95c-59 0 -102 48 -154 48
c-20 0 -31 -13 -39 -32c-3 -9 -10 -18 -23 -18c-12 0 -23 10 -23 23c0 40 32 95 84 95c58 0 100 -47 154 -47c21 0 31 10 37 27c4 11 10 21 25 21c14 0 22 -10 23 -22z" />
    <glyph glyph-name="odieresis" unicode="&#xf6;" horiz-adv-x="608" 
d="M304 520c154 0 256 -107 256 -265s-102 -265 -256 -265c-155 0 -256 107 -256 265s101 265 256 265zM304 73c76 0 165 50 165 183c0 132 -89 181 -165 181c-77 0 -165 -49 -165 -181c0 -133 88 -183 165 -183zM220 677c28 0 51 -23 51 -51s-23 -51 -51 -51s-51 23 -51 51
s23 51 51 51zM389 677c28 0 51 -23 51 -51s-23 -51 -51 -51s-51 23 -51 51s23 51 51 51z" />
    <glyph glyph-name="divide" unicode="&#xf7;" horiz-adv-x="712" 
d="M356 197c28 0 51 -23 51 -51s-23 -51 -51 -51s-51 23 -51 51s23 51 51 51zM356 465c-28 0 -51 23 -51 51s23 51 51 51s51 -23 51 -51s-23 -51 -51 -51zM598 372c23 0 41 -18 41 -41s-18 -40 -41 -40h-485c-23 0 -40 17 -40 40s17 41 40 41h485z" />
    <glyph glyph-name="oslash" unicode="&#xf8;" horiz-adv-x="608" 
d="M304 520c50 0 94 -12 132 -32l29 41c5 7 13 10 21 10c15 0 25 -11 25 -24c0 -6 -2 -11 -6 -17l-28 -40c53 -46 83 -117 83 -203c0 -158 -102 -265 -256 -265c-51 0 -95 11 -133 32l-30 -43c-5 -7 -13 -10 -21 -10c-15 0 -25 11 -25 24c0 6 2 11 6 17l29 41
c-52 47 -82 118 -82 204c0 158 101 265 256 265zM139 256c0 -59 17 -102 43 -131l204 291c-26 14 -55 21 -82 21c-77 0 -165 -49 -165 -181zM304 73c76 0 165 50 165 183c0 58 -18 100 -43 129l-204 -291c26 -15 54 -21 82 -21z" />
    <glyph glyph-name="ugrave" unicode="&#xf9;" horiz-adv-x="610" 
d="M254 -10c-114 0 -179 89 -179 196v284c0 25 21 45 46 45s45 -20 45 -45v-274c0 -76 32 -122 110 -122c72 0 124 46 164 96v300c0 25 21 45 46 45s45 -20 45 -45v-429c0 -26 -20 -46 -45 -46s-46 20 -46 46v41c-42 -46 -97 -92 -186 -92zM254 722c17 0 27 -8 33 -19
l51 -90c2 -3 7 -11 7 -19c0 -16 -11 -27 -27 -27c-10 0 -16 4 -22 11l-69 82c-7 8 -10 16 -10 25c0 22 15 37 37 37z" />
    <glyph glyph-name="uacute" unicode="&#xfa;" horiz-adv-x="610" 
d="M254 -10c-114 0 -179 89 -179 196v284c0 25 21 45 46 45s45 -20 45 -45v-274c0 -76 32 -122 110 -122c72 0 124 46 164 96v300c0 25 21 45 46 45s45 -20 45 -45v-429c0 -26 -20 -46 -45 -46s-46 20 -46 46v41c-42 -46 -97 -92 -186 -92zM352 722c22 0 37 -15 37 -37
c0 -9 -3 -17 -10 -25l-69 -82c-6 -7 -12 -11 -22 -11c-16 0 -27 11 -27 27c0 8 5 16 7 19l51 90c6 11 16 19 33 19z" />
    <glyph glyph-name="ucircumflex" unicode="&#xfb;" horiz-adv-x="610" 
d="M254 -10c-114 0 -179 89 -179 196v284c0 25 21 45 46 45s45 -20 45 -45v-274c0 -76 32 -122 110 -122c72 0 124 46 164 96v300c0 25 21 45 46 45s45 -20 45 -45v-429c0 -26 -20 -46 -45 -46s-46 20 -46 46v41c-42 -46 -97 -92 -186 -92zM438 596c1 -15 -13 -30 -30 -30
c-6 0 -14 3 -18 7l-87 74l-87 -74c-4 -4 -12 -7 -18 -7c-17 0 -31 15 -30 30c0 7 3 14 8 19l68 70c10 11 21 20 40 20h38c19 0 30 -9 40 -20l68 -70c5 -5 8 -12 8 -19z" />
    <glyph glyph-name="udieresis" unicode="&#xfc;" horiz-adv-x="610" 
d="M254 -10c-114 0 -179 89 -179 196v284c0 25 21 45 46 45s45 -20 45 -45v-274c0 -76 32 -122 110 -122c72 0 124 46 164 96v300c0 25 21 45 46 45s45 -20 45 -45v-429c0 -26 -20 -46 -45 -46s-46 20 -46 46v41c-42 -46 -97 -92 -186 -92zM219 677c28 0 51 -23 51 -51
s-23 -51 -51 -51s-51 23 -51 51s23 51 51 51zM388 677c28 0 51 -23 51 -51s-23 -51 -51 -51s-51 23 -51 51s23 51 51 51z" />
    <glyph glyph-name="yacute" unicode="&#xfd;" horiz-adv-x="533" 
d="M509 469c0 -6 -1 -12 -3 -17l-273 -656c-8 -18 -21 -31 -42 -31c-24 0 -43 20 -43 44c0 5 1 11 3 16l65 167l-188 458c-2 5 -4 12 -4 19c0 25 20 46 45 46c19 0 35 -12 42 -28l154 -382l157 380c8 18 22 30 42 30c25 0 45 -21 45 -46zM315 722c22 0 37 -15 37 -37
c0 -9 -3 -17 -10 -25l-69 -82c-6 -7 -12 -11 -22 -11c-16 0 -27 11 -27 27c0 8 5 16 7 19l51 90c6 11 16 19 33 19z" />
    <glyph glyph-name="thorn" unicode="&#xfe;" horiz-adv-x="631" 
d="M341 520c121 0 242 -95 242 -265s-121 -265 -242 -265c-70 0 -125 28 -171 76v-255c0 -26 -20 -46 -46 -46c-25 0 -45 20 -45 46v878c0 26 20 46 45 46c26 0 46 -20 46 -46v-245c46 48 101 76 171 76zM328 75c95 0 164 62 164 180s-69 180 -164 180
c-65 0 -119 -32 -158 -75v-210c39 -43 93 -75 158 -75z" />
    <glyph glyph-name="ydieresis" unicode="&#xff;" horiz-adv-x="533" 
d="M509 469c0 -6 -1 -12 -3 -17l-273 -656c-8 -18 -21 -31 -42 -31c-24 0 -43 20 -43 44c0 5 1 11 3 16l65 167l-188 458c-2 5 -4 12 -4 19c0 25 20 46 45 46c19 0 35 -12 42 -28l154 -382l157 380c8 18 22 30 42 30c25 0 45 -21 45 -46zM181 677c28 0 51 -23 51 -51
s-23 -51 -51 -51s-51 23 -51 51s23 51 51 51zM350 677c28 0 51 -23 51 -51s-23 -51 -51 -51s-51 23 -51 51s23 51 51 51z" />
    <glyph glyph-name="longs" unicode="&#x17f;" horiz-adv-x="287" 
d="M290 653c-50 0 -82 -17 -82 -88v-525c0 -25 -20 -45 -46 -45c-25 0 -45 20 -45 45v392h-59c-22 0 -39 17 -39 39s17 39 39 39h59v58c0 126 79 172 150 172c33 0 63 -8 87 -20c12 -6 23 -19 23 -35c0 -19 -16 -38 -37 -38c-16 0 -31 6 -50 6z" />
    <glyph glyph-name="florin" unicode="&#x192;" horiz-adv-x="403" 
d="M421 733c13 -6 23 -20 23 -36c0 -23 -18 -40 -40 -40c-12 0 -27 6 -51 6c-50 0 -84 -17 -94 -88l-21 -148h117c18 0 31 -15 31 -31c0 -18 -14 -31 -31 -31h-125l-50 -353c-18 -126 -103 -168 -174 -168h-18c-23 0 -41 18 -41 41s18 42 41 42h7c50 0 84 17 94 88l49 350
h-78c-18 0 -31 14 -31 31s14 31 31 31h87l21 151c18 126 104 168 175 168c30 0 57 -3 78 -13z" />
    <glyph glyph-name="AEacute" unicode="&#x1fc;" horiz-adv-x="1040" 
d="M945 85c24 0 43 -19 43 -43s-19 -42 -43 -42h-401c-25 0 -45 20 -45 45v134h-308l-102 -158c-9 -14 -23 -26 -41 -26c-26 0 -46 20 -46 45c0 11 4 19 10 28l399 605c10 15 27 25 46 25h488c24 0 43 -19 43 -43s-19 -42 -43 -42h-355v-221h319c24 0 43 -19 43 -43
s-19 -42 -43 -42h-319v-222h355zM499 262v351h-25l-229 -351h254zM577 894c22 0 37 -15 37 -37c0 -9 -3 -17 -10 -25l-69 -82c-6 -7 -12 -11 -22 -11c-16 0 -27 11 -27 27c0 8 5 16 7 19l51 90c6 11 16 19 33 19z" />
    <glyph glyph-name="aeacute" unicode="&#x1fd;" horiz-adv-x="904" 
d="M861 269c0 -22 -16 -43 -44 -43h-344c10 -90 61 -151 177 -151c60 0 98 12 135 31c6 3 11 4 18 4c21 0 40 -16 40 -39c0 -16 -12 -29 -26 -37c-44 -25 -88 -44 -175 -44c-91 0 -160 31 -203 87c-47 -72 -138 -87 -206 -87c-106 0 -196 56 -196 150s74 159 230 159h121v11
c0 89 -44 124 -134 124c-56 0 -96 -12 -133 -24c-4 -1 -9 -2 -13 -2c-20 0 -37 16 -37 38c0 17 9 31 26 38c47 20 102 36 173 36c87 0 141 -35 171 -84c38 51 97 84 181 84c149 0 239 -107 239 -251zM388 169v57h-109c-94 0 -151 -19 -151 -76c0 -43 42 -80 123 -80
c62 0 137 18 137 99zM473 299h298c-6 104 -85 144 -149 144s-143 -40 -149 -144zM493 722c22 0 37 -15 37 -37c0 -9 -3 -17 -10 -25l-69 -82c-6 -7 -12 -11 -22 -11c-16 0 -27 11 -27 27c0 8 5 16 7 19l51 90c6 11 16 19 33 19z" />
    <glyph glyph-name="Oslashacute" unicode="&#x1fe;" horiz-adv-x="811" 
d="M406 708c72 0 136 -18 188 -49l40 58c5 7 13 10 21 10c15 0 25 -11 25 -24c0 -6 -2 -11 -6 -17l-39 -56c76 -64 119 -163 122 -281c-4 -209 -138 -359 -351 -359c-72 0 -135 17 -187 47l-40 -57c-5 -7 -13 -10 -21 -10c-15 0 -25 11 -25 24c0 6 2 11 6 17l39 55
c-77 64 -121 164 -123 283c4 209 137 359 351 359zM146 349c0 -86 29 -160 83 -210l314 449c-38 22 -84 35 -137 35c-166 0 -260 -120 -260 -274zM406 75c165 0 260 120 260 274c0 84 -29 159 -82 209l-315 -449c38 -22 84 -34 137 -34zM453 894c22 0 37 -15 37 -37
c0 -9 -3 -17 -10 -25l-69 -82c-6 -7 -12 -11 -22 -11c-16 0 -27 11 -27 27c0 8 5 16 7 19l51 90c6 11 16 19 33 19z" />
    <glyph glyph-name="oslashacute" unicode="&#x1ff;" horiz-adv-x="608" 
d="M304 520c50 0 94 -12 132 -32l29 41c5 7 13 10 21 10c15 0 25 -11 25 -24c0 -6 -2 -11 -6 -17l-28 -40c53 -46 83 -117 83 -203c0 -158 -102 -265 -256 -265c-51 0 -95 11 -133 32l-30 -43c-5 -7 -13 -10 -21 -10c-15 0 -25 11 -25 24c0 6 2 11 6 17l29 41
c-52 47 -82 118 -82 204c0 158 101 265 256 265zM139 256c0 -59 17 -102 43 -131l204 291c-26 14 -55 21 -82 21c-77 0 -165 -49 -165 -181zM304 73c76 0 165 50 165 183c0 58 -18 100 -43 129l-204 -291c26 -15 54 -21 82 -21zM353 722c22 0 37 -15 37 -37
c0 -9 -3 -17 -10 -25l-69 -82c-6 -7 -12 -11 -22 -11c-16 0 -27 11 -27 27c0 8 5 16 7 19l51 90c6 11 16 19 33 19z" />
    <glyph glyph-name="Scommaaccent" unicode="&#x218;" horiz-adv-x="617" 
d="M318 -47c27 0 50 -23 50 -51v-5v-47c0 -72 -39 -110 -74 -131c-2 -2 -9 -5 -15 -5c-15 0 -26 13 -26 27c0 10 5 17 14 23c26 15 45 34 45 83h-3c-28 0 -51 22 -51 50v5c0 28 23 51 51 51h9zM149 510c0 -173 424 -61 424 -325c0 -113 -101 -195 -256 -195
c-100 0 -180 23 -238 48c-15 6 -28 23 -28 41c0 22 16 42 41 42c6 0 12 -1 19 -4c45 -20 111 -41 197 -41c99 0 175 28 175 115c0 148 -425 66 -425 312c0 111 90 205 259 205c78 0 145 -13 199 -33c14 -5 28 -16 28 -40c0 -20 -15 -42 -40 -42c-5 0 -11 2 -16 4
c-46 16 -100 27 -161 27c-101 0 -178 -39 -178 -114z" />
    <glyph glyph-name="scommaaccent" unicode="&#x219;" horiz-adv-x="480" 
d="M250 -47c27 0 50 -23 50 -51v-5v-47c0 -72 -39 -110 -74 -131c-2 -2 -9 -5 -15 -5c-15 0 -26 13 -26 27c0 10 5 17 14 23c26 15 45 34 45 83h-3c-28 0 -51 22 -51 50v5c0 28 23 51 51 51h9zM139 367c0 -104 301 -33 301 -229c0 -81 -65 -148 -193 -148
c-73 0 -131 17 -182 45c-10 7 -17 19 -17 33c0 20 16 40 39 40c6 0 11 -1 18 -4c36 -16 77 -30 136 -30c77 0 111 26 111 71c0 86 -300 35 -300 217c0 90 65 158 195 158c55 0 104 -10 145 -25c19 -6 29 -23 29 -38c0 -21 -17 -40 -40 -40c-5 0 -9 1 -13 2
c-32 10 -70 18 -114 18c-74 0 -115 -30 -115 -70z" />
    <glyph glyph-name="uni021A" unicode="&#x21a;" horiz-adv-x="609" 
d="M309 -47c27 0 50 -23 50 -51v-5v-47c0 -72 -39 -110 -74 -131c-2 -2 -9 -5 -15 -5c-15 0 -26 13 -26 27c0 10 5 17 14 23c26 15 45 34 45 83h-3c-28 0 -51 22 -51 50v5c0 28 23 51 51 51h9zM553 698c24 0 43 -19 43 -43s-19 -42 -43 -42h-203v-573c0 -25 -21 -45 -46 -45
s-45 20 -45 45v573h-204c-24 0 -42 18 -42 42s18 43 42 43h498z" />
    <glyph glyph-name="uni021B" unicode="&#x21b;" horiz-adv-x="383" 
d="M196 -47c27 0 50 -23 50 -51v-5v-47c0 -72 -39 -110 -74 -131c-2 -2 -9 -5 -15 -5c-15 0 -26 13 -26 27c0 10 5 17 14 23c26 15 45 34 45 83h-3c-28 0 -51 22 -51 50v5c0 28 23 51 51 51h9zM327 79c18 0 36 -15 36 -36c0 -17 -9 -28 -23 -35c-24 -11 -51 -18 -83 -18
c-47 0 -146 8 -146 132v310h-71c-11 0 -19 8 -19 19c0 6 3 12 9 17l136 133c3 3 9 9 17 9c11 0 19 -9 19 -20v-80h113c22 0 39 -17 39 -39s-17 -39 -39 -39h-113v-302c0 -59 40 -60 65 -60c32 0 43 9 60 9z" />
    <glyph glyph-name="dotlessj" unicode="&#x237;" horiz-adv-x="257" 
d="M128 514c26 0 46 -20 46 -46v-571c0 -77 -35 -137 -131 -137c-24 0 -45 3 -63 9c-16 5 -26 19 -26 36c0 20 16 38 38 38c9 0 18 -3 30 -3c35 0 61 5 61 59v569c0 26 20 46 45 46z" />
    <glyph glyph-name="circumflex" unicode="&#x2c6;" horiz-adv-x="409" 
d="M338 596c1 -15 -13 -30 -30 -30c-6 0 -14 3 -18 7l-87 74l-87 -74c-4 -4 -12 -7 -18 -7c-17 0 -31 15 -30 30c0 7 3 14 8 19l68 70c10 11 21 20 40 20h38c19 0 30 -9 40 -20l68 -70c5 -5 8 -12 8 -19z" />
    <glyph glyph-name="caron" unicode="&#x2c7;" horiz-adv-x="391" 
d="M338 675c0 -7 -3 -14 -8 -19l-68 -70c-10 -11 -21 -20 -40 -20h-38c-19 0 -30 9 -40 20l-68 70c-5 5 -8 12 -8 19c-1 15 13 30 30 30c6 0 14 -3 18 -7l87 -74l87 74c4 4 12 7 18 7c17 0 31 -15 30 -30z" />
    <glyph glyph-name="breve" unicode="&#x2d8;" horiz-adv-x="385" 
d="M276 683c6 13 16 19 28 19c19 0 31 -14 31 -31c0 -5 -1 -10 -3 -14c-23 -50 -76 -81 -140 -81s-117 31 -140 81c-2 4 -3 9 -3 14c0 17 12 31 31 31c12 0 22 -6 28 -19c14 -30 45 -49 84 -49s70 19 84 49z" />
    <glyph glyph-name="dotaccent" unicode="&#x2d9;" horiz-adv-x="228" 
d="M114 677c28 0 51 -23 51 -51s-23 -51 -51 -51s-51 23 -51 51s23 51 51 51z" />
    <glyph glyph-name="ring" unicode="&#x2da;" horiz-adv-x="270" 
d="M137 739c52 0 94 -42 94 -94s-42 -94 -94 -94s-94 42 -94 94s42 94 94 94zM137 596c27 0 49 22 49 49s-22 49 -49 49s-49 -22 -49 -49s22 -49 49 -49z" />
    <glyph glyph-name="ogonek" unicode="&#x2db;" horiz-adv-x="351" 
d="M237 -139c13 0 22 -9 22 -22c0 -7 -4 -13 -11 -18c-21 -14 -49 -24 -86 -24c-48 0 -93 31 -93 84c0 64 53 97 107 119h78c-47 -17 -113 -50 -112 -100c0 -29 15 -47 51 -47c14 0 25 3 35 6c3 1 6 2 9 2z" />
    <glyph glyph-name="tilde" unicode="&#x2dc;" horiz-adv-x="432" 
d="M378 668c0 -43 -34 -95 -84 -95c-59 0 -102 48 -154 48c-20 0 -31 -13 -39 -32c-3 -9 -10 -18 -23 -18c-12 0 -23 10 -23 23c0 40 32 95 84 95c58 0 100 -47 154 -47c21 0 31 10 37 27c4 11 10 21 25 21c14 0 22 -10 23 -22z" />
    <glyph glyph-name="hungarumlaut" unicode="&#x2dd;" horiz-adv-x="399" 
d="M139 722c22 0 37 -15 37 -37c0 -9 -3 -17 -10 -25l-69 -82c-6 -7 -12 -11 -22 -11c-16 0 -27 11 -27 27c0 8 5 16 7 19l51 90c6 11 16 19 33 19zM293 722c22 0 37 -15 37 -37c0 -9 -3 -17 -10 -25l-69 -82c-6 -7 -12 -11 -22 -11c-16 0 -27 11 -27 27c0 8 5 16 7 19
l51 90c6 11 16 19 33 19z" />
    <glyph glyph-name="uni03A9" unicode="&#x3a9;" horiz-adv-x="790" 
d="M395 617c-153 0 -244 -123 -244 -259c0 -164 92 -238 151 -272c13 -8 23 -24 23 -40c0 -25 -22 -46 -47 -46h-185c-22 0 -39 17 -39 39s17 39 39 39h101c-62 51 -125 139 -125 291c0 162 122 339 326 339s326 -177 326 -339c0 -152 -63 -240 -125 -291h101
c22 0 39 -17 39 -39s-17 -39 -39 -39h-185c-25 0 -47 21 -47 46c0 16 10 32 23 40c59 34 151 108 151 272c0 136 -91 259 -244 259z" />
    <glyph glyph-name="pi" unicode="&#x3c0;" horiz-adv-x="634" 
d="M576 510c22 0 40 -18 40 -40s-18 -39 -40 -39h-60v-393c0 -24 -19 -43 -43 -43s-43 19 -43 43v393h-176c-4 -137 -21 -265 -60 -404c-5 -19 -22 -32 -42 -32c-23 0 -44 18 -44 43c0 6 2 14 5 21c46 122 51 241 55 372h-22c-32 0 -53 -2 -76 -9c-3 -1 -11 -4 -17 -4
c-19 0 -37 17 -37 36c0 14 9 27 21 33c24 12 59 23 109 23h430z" />
    <glyph glyph-name="endash" unicode="&#x2013;" horiz-adv-x="684" 
d="M574 321c23 0 41 -18 41 -41s-18 -40 -41 -40h-465c-23 0 -40 17 -40 40s17 41 40 41h465z" />
    <glyph glyph-name="emdash" unicode="&#x2014;" horiz-adv-x="891" 
d="M781 321c23 0 41 -18 41 -41s-18 -40 -41 -40h-672c-23 0 -40 17 -40 40s17 41 40 41h672z" />
    <glyph glyph-name="quoteleft" unicode="&#x2018;" horiz-adv-x="255" 
d="M132 477h-10c-31 0 -56 25 -56 56v6v53c0 80 43 122 82 146c3 2 10 5 17 5c17 0 29 -14 29 -30c0 -11 -5 -19 -15 -25c-29 -17 -51 -38 -51 -93h4c31 0 56 -25 56 -56v-6c0 -31 -25 -56 -56 -56z" />
    <glyph glyph-name="quoteright" unicode="&#x2019;" horiz-adv-x="238" 
d="M135 743c31 0 56 -25 56 -56v-6v-53c0 -80 -43 -122 -82 -146c-3 -2 -10 -5 -17 -5c-17 0 -29 14 -29 30c0 11 5 19 15 25c29 17 51 38 51 93h-4c-31 0 -56 25 -56 56v6c0 31 25 56 56 56h10z" />
    <glyph glyph-name="quotesinglbase" unicode="&#x201a;" horiz-adv-x="260" 
d="M135 115c31 0 56 -25 56 -56v-6v-53c0 -80 -43 -122 -82 -146c-3 -2 -10 -5 -17 -5c-17 0 -29 14 -29 30c0 11 5 19 15 25c29 17 51 38 51 93h-4c-31 0 -56 25 -56 56v6c0 31 25 56 56 56h10z" />
    <glyph glyph-name="quotedblleft" unicode="&#x201c;" horiz-adv-x="437" 
d="M313 477h-10c-31 0 -56 25 -56 56v6v53c0 80 43 122 82 146c3 2 10 5 17 5c17 0 29 -14 29 -30c0 -11 -5 -19 -15 -25c-29 -17 -51 -38 -51 -93h4c31 0 56 -25 56 -56v-6c0 -31 -25 -56 -56 -56zM132 477h-10c-31 0 -56 25 -56 56v6v53c0 80 43 122 82 146c3 2 10 5 17 5
c17 0 29 -14 29 -30c0 -11 -5 -19 -15 -25c-29 -17 -51 -38 -51 -93h4c31 0 56 -25 56 -56v-6c0 -31 -25 -56 -56 -56z" />
    <glyph glyph-name="quotedblright" unicode="&#x201d;" horiz-adv-x="420" 
d="M135 743c31 0 56 -25 56 -56v-6v-53c0 -80 -43 -122 -82 -146c-3 -2 -10 -5 -17 -5c-17 0 -29 14 -29 30c0 11 5 19 15 25c29 17 51 38 51 93h-4c-31 0 -56 25 -56 56v6c0 31 25 56 56 56h10zM316 743c31 0 56 -25 56 -56v-6v-53c0 -80 -43 -122 -82 -146
c-3 -2 -10 -5 -17 -5c-17 0 -29 14 -29 30c0 11 5 19 15 25c29 17 51 38 51 93h-4c-31 0 -56 25 -56 56v6c0 31 25 56 56 56h10z" />
    <glyph glyph-name="quotedblbase" unicode="&#x201e;" horiz-adv-x="442" 
d="M135 115c31 0 56 -25 56 -56v-6v-53c0 -80 -43 -122 -82 -146c-3 -2 -10 -5 -17 -5c-17 0 -29 14 -29 30c0 11 5 19 15 25c29 17 51 38 51 93h-4c-31 0 -56 25 -56 56v6c0 31 25 56 56 56h10zM316 115c31 0 56 -25 56 -56v-6v-53c0 -80 -43 -122 -82 -146
c-3 -2 -10 -5 -17 -5c-17 0 -29 14 -29 30c0 11 5 19 15 25c29 17 51 38 51 93h-4c-31 0 -56 25 -56 56v6c0 31 25 56 56 56h10z" />
    <glyph glyph-name="dagger" unicode="&#x2020;" horiz-adv-x="505" 
d="M417 485c28 0 54 -9 54 -31s-26 -31 -54 -31h-39c-11 0 -29 1 -85 10c-11 2 -19 -6 -17 -17c0 0 9 -56 9 -85l-11 -370c-1 -15 1 -54 -21 -54s-20 39 -21 54l-11 370c0 29 9 85 9 85c2 11 -6 19 -17 17c-56 -9 -74 -10 -85 -10h-39c-28 0 -54 9 -54 31s26 31 54 31h39
c11 0 29 0 85 -9c11 -2 19 6 17 17c-9 56 -10 74 -10 85v41c0 18 7 54 33 54s33 -36 33 -54v-41c0 -11 -1 -29 -10 -85c-2 -11 6 -19 17 -17c56 9 74 9 85 9h39z" />
    <glyph glyph-name="daggerdbl" unicode="&#x2021;" horiz-adv-x="531" 
d="M430 156c28 0 54 -9 54 -31s-26 -31 -54 -31h-39c-11 0 -29 0 -85 9c-11 2 -19 -6 -17 -17c9 -56 10 -74 10 -85v-41c0 -18 -7 -54 -33 -54s-33 36 -33 54v41c0 11 1 29 10 85c2 11 -6 19 -17 17c-56 -9 -74 -9 -85 -9h-39c-28 0 -54 9 -54 31s26 31 54 31h39
c11 0 29 -1 85 -10c11 -2 19 6 17 17c0 0 -9 98 -9 127s9 127 9 127c2 11 -6 19 -17 17c-56 -9 -74 -10 -85 -10h-39c-28 0 -54 9 -54 31s26 31 54 31h39c11 0 29 0 85 -9c11 -2 19 6 17 17c-9 56 -10 74 -10 85v41c0 18 7 54 33 54s33 -36 33 -54v-41c0 -11 -1 -29 -10 -85
c-2 -11 6 -19 17 -17c56 9 74 9 85 9h39c28 0 54 -9 54 -31s-26 -31 -54 -31h-39c-11 0 -29 1 -85 10c-11 2 -19 -6 -17 -17c0 0 9 -98 9 -127s-9 -127 -9 -127c-2 -11 6 -19 17 -17c56 9 74 10 85 10h39z" />
    <glyph glyph-name="bullet" unicode="&#x2022;" horiz-adv-x="377" 
d="M189 526c73 0 132 -59 132 -133s-59 -133 -132 -133c-74 0 -133 59 -133 133s59 133 133 133z" />
    <glyph glyph-name="ellipsis" unicode="&#x2026;" horiz-adv-x="968" 
d="M135 115c31 0 56 -25 56 -56v-6c0 -31 -25 -56 -56 -56h-10c-31 0 -56 25 -56 56v6c0 31 25 56 56 56h10zM490 115c31 0 56 -25 56 -56v-6c0 -31 -25 -56 -56 -56h-10c-31 0 -56 25 -56 56v6c0 31 25 56 56 56h10zM842 115c31 0 56 -25 56 -56v-6c0 -31 -25 -56 -56 -56
h-10c-31 0 -56 25 -56 56v6c0 31 25 56 56 56h10z" />
    <glyph glyph-name="guilsinglleft" unicode="&#x2039;" horiz-adv-x="377" 
d="M303 59c0 -23 -17 -39 -39 -39c-11 0 -22 4 -28 11l-164 181c-10 11 -18 27 -18 43s8 32 18 43l164 181c6 7 17 11 28 11c22 0 39 -16 39 -39c0 -10 -3 -19 -9 -26l-160 -170l160 -170c6 -7 9 -16 9 -26z" />
    <glyph glyph-name="guilsinglright" unicode="&#x203a;" horiz-adv-x="377" 
d="M74 59c0 10 3 19 9 26l160 170l-160 170c-6 7 -9 16 -9 26c0 23 17 39 39 39c11 0 22 -4 28 -11l164 -181c10 -11 18 -27 18 -43s-8 -32 -18 -43l-164 -181c-6 -7 -17 -11 -28 -11c-22 0 -39 16 -39 39z" />
    <glyph glyph-name="fraction" unicode="&#x2044;" horiz-adv-x="200" 
d="M-106 -24c-18 0 -34 14 -34 34c0 6 2 12 5 18l414 682c6 10 17 14 28 14c18 0 34 -14 34 -34c0 -6 -2 -12 -5 -18l-414 -682c-6 -10 -17 -14 -28 -14z" />
    <glyph glyph-name="Euro" unicode="&#x20ac;" horiz-adv-x="682" 
d="M596 98c22 0 41 -18 41 -40c0 -16 -9 -29 -23 -36c-43 -21 -92 -32 -146 -32c-159 0 -275 101 -319 239h-71c-20 0 -36 16 -36 36s16 37 36 37h55c-2 15 -4 31 -4 47s2 31 4 47h-55c-20 0 -36 16 -36 36s16 36 36 36h71c44 139 160 240 319 240c54 0 103 -11 146 -32
c14 -7 23 -20 23 -36c0 -22 -19 -40 -41 -40c-6 0 -14 3 -19 5c-30 11 -64 17 -109 17c-98 0 -185 -59 -224 -154h287c20 0 36 -16 36 -36c0 -19 -16 -36 -36 -36h-308c-2 -15 -3 -31 -3 -47s1 -32 3 -47h258c20 0 37 -17 37 -37c0 -21 -15 -36 -37 -36h-237
c39 -94 126 -153 224 -153c45 0 79 6 109 17c5 2 13 5 19 5z" />
    <glyph glyph-name="trademark" unicode="&#x2122;" horiz-adv-x="953" 
d="M532 674l116 -287l116 287c6 15 22 26 39 26h17c24 0 42 -19 42 -42v-309c0 -18 -14 -32 -32 -32s-32 14 -32 32v262l-111 -269c-6 -15 -21 -25 -39 -25s-33 10 -39 25l-111 269v-262c0 -18 -14 -32 -32 -32s-32 14 -32 32v309c0 23 18 42 42 42h17c17 0 33 -11 39 -26z
M350 698c16 0 29 -13 29 -29s-13 -29 -29 -29h-101v-292c0 -18 -14 -31 -32 -31s-31 13 -31 31v292h-100c-16 0 -29 13 -29 29s13 29 29 29h264z" />
    <glyph glyph-name="Omega" unicode="&#x2126;" horiz-adv-x="790" 
d="M395 617c-153 0 -244 -123 -244 -259c0 -164 92 -238 151 -272c13 -8 23 -24 23 -40c0 -25 -22 -46 -47 -46h-185c-22 0 -39 17 -39 39s17 39 39 39h101c-62 51 -125 139 -125 291c0 162 122 339 326 339s326 -177 326 -339c0 -152 -63 -240 -125 -291h101
c22 0 39 -17 39 -39s-17 -39 -39 -39h-185c-25 0 -47 21 -47 46c0 16 10 32 23 40c59 34 151 108 151 272c0 136 -91 259 -244 259z" />
    <glyph glyph-name="partialdiff" unicode="&#x2202;" horiz-adv-x="685" 
d="M354 754c180 0 268 -156 268 -321c0 -258 -113 -443 -339 -443c-176 0 -241 121 -241 218c0 139 111 246 278 246c86 0 164 -44 210 -91c3 23 4 38 4 63c0 119 -51 242 -193 242c-35 0 -68 -3 -103 -13c-3 -1 -9 -2 -14 -2c-22 0 -40 17 -40 40c0 17 11 31 26 37
c40 15 88 24 144 24zM290 70c150 0 207 123 227 212c-40 53 -108 97 -190 97c-113 0 -194 -60 -194 -162c0 -75 51 -147 157 -147z" />
    <glyph glyph-name="Delta" unicode="&#x2206;" horiz-adv-x="721" 
d="M431 646l215 -540c4 -10 8 -24 8 -36c0 -41 -33 -70 -74 -70h-438c-41 0 -74 29 -74 70c0 12 4 26 8 36l215 540c11 28 31 52 70 52c40 0 59 -24 70 -52zM146 71h430l-215 539z" />
    <glyph glyph-name="product" unicode="&#x220f;" horiz-adv-x="741" 
d="M662 698c24 0 43 -19 43 -43s-19 -43 -43 -43h-74v-684c0 -24 -19 -43 -43 -43s-43 19 -43 43v684h-263v-684c0 -24 -19 -43 -43 -43s-43 19 -43 43v684h-74c-24 0 -43 19 -43 43s19 43 43 43h583z" />
    <glyph glyph-name="summation" unicode="&#x2211;" horiz-adv-x="631" 
d="M546 -103h-442c-35 0 -63 29 -63 64c0 18 8 33 19 46l272 291l-272 291c-11 13 -19 28 -19 46c0 35 28 64 63 64h442c24 0 44 -20 44 -44s-20 -43 -44 -43h-393l251 -265c12 -13 19 -30 19 -49s-7 -36 -19 -49l-251 -265h393c24 0 44 -19 44 -43s-20 -44 -44 -44z" />
    <glyph glyph-name="minus" unicode="&#x2212;" horiz-adv-x="712" 
d="M598 371c23 0 41 -18 41 -41s-18 -40 -41 -40h-485c-23 0 -40 17 -40 40s17 41 40 41h485z" />
    <glyph glyph-name="radical" unicode="&#x221a;" horiz-adv-x="620" 
d="M600 698c15 0 27 -12 27 -27s-12 -26 -27 -26h-89l-195 -611c-6 -20 -25 -34 -46 -34h-4c-23 0 -39 16 -47 37l-114 311l-56 -22c-3 -1 -9 -3 -13 -3c-16 0 -29 14 -29 30c0 14 9 22 24 28l82 33c5 2 11 4 17 4c18 0 28 -7 36 -29l100 -283l184 552c7 22 22 40 47 40h103
z" />
    <glyph glyph-name="infinity" unicode="&#x221e;" horiz-adv-x="963" 
d="M705 457c151 0 193 -120 193 -202s-42 -202 -193 -202c-108 0 -172 73 -222 140h-3c-49 -67 -115 -140 -222 -140c-151 0 -193 120 -193 202s42 202 193 202c107 0 173 -74 222 -140h3c50 66 114 140 222 140zM695 130c84 0 123 63 123 125s-39 125 -123 125
c-93 0 -147 -81 -178 -125c31 -43 85 -125 178 -125zM268 130c93 0 148 82 178 125c-30 44 -85 125 -178 125c-84 0 -123 -63 -123 -125s39 -125 123 -125z" />
    <glyph glyph-name="integral" unicode="&#x222b;" horiz-adv-x="371" 
d="M336 791c22 -4 34 -18 34 -36c0 -19 -17 -36 -36 -36c-5 0 -9 1 -20 1c-33 0 -58 -6 -62 -57l-47 -681c-5 -72 -42 -129 -133 -129c-15 0 -29 2 -42 4c-17 3 -29 19 -29 36c0 19 14 36 36 36c5 0 10 -1 21 -1c33 0 58 5 61 56l48 681c4 73 42 129 133 129
c13 0 25 -1 36 -3z" />
    <glyph glyph-name="approxequal" unicode="&#x2248;" horiz-adv-x="675" 
d="M595 417c0 -3 -1 -8 -2 -11c-22 -65 -68 -95 -124 -95c-101 0 -183 75 -260 75c-40 0 -62 -21 -73 -51c-4 -11 -14 -18 -25 -18c-15 0 -28 13 -28 28c0 3 1 7 3 11c27 63 67 95 123 95c101 0 183 -75 260 -75c39 0 60 19 71 49c4 11 14 20 27 20c15 0 28 -13 28 -28z
M595 232c0 -3 -1 -8 -2 -11c-22 -65 -68 -95 -124 -95c-101 0 -183 75 -260 75c-40 0 -62 -21 -73 -51c-4 -11 -14 -18 -25 -18c-15 0 -28 13 -28 28c0 3 1 7 3 11c27 63 67 95 123 95c101 0 183 -75 260 -75c39 0 60 19 71 49c4 11 14 20 27 20c15 0 28 -13 28 -28z" />
    <glyph glyph-name="notequal" unicode="&#x2260;" horiz-adv-x="688" 
d="M98 404c-22 0 -39 17 -39 39s17 39 39 39h304l86 136c5 8 15 13 25 13c16 0 30 -12 30 -26c0 -8 -1 -14 -5 -21l-65 -102h113c22 0 39 -17 39 -39s-17 -39 -39 -39h-163l-92 -146h255c22 0 39 -17 39 -39s-17 -39 -39 -39h-305l-88 -140c-5 -8 -15 -13 -25 -13
c-16 0 -30 12 -30 26c0 8 1 14 5 21l67 106h-112c-22 0 -39 17 -39 39s17 39 39 39h162l92 146h-254z" />
    <glyph glyph-name="lessequal" unicode="&#x2264;" horiz-adv-x="630" 
d="M513 113c-6 0 -11 1 -16 3l-399 179c-22 10 -36 29 -36 52v8c0 23 14 42 36 52l399 179c5 2 10 3 16 3c22 0 40 -17 40 -40c0 -16 -11 -31 -27 -38l-360 -160l360 -160c16 -7 27 -22 27 -38c0 -23 -18 -40 -40 -40zM517 73c20 0 37 -17 37 -37s-17 -36 -37 -36h-423
c-20 0 -36 16 -36 36s16 37 36 37h423z" />
    <glyph glyph-name="greaterequal" unicode="&#x2265;" horiz-adv-x="630" 
d="M117 113c-22 0 -40 17 -40 40c0 16 11 31 27 38l360 160l-360 160c-16 7 -27 22 -27 38c0 23 18 40 40 40c6 0 11 -1 16 -3l399 -179c22 -10 36 -29 36 -52v-8c0 -23 -14 -42 -36 -52l-399 -179c-5 -2 -10 -3 -16 -3zM113 73h423c20 0 36 -17 36 -37s-16 -36 -36 -36
h-423c-20 0 -37 16 -37 36s17 37 37 37z" />
    <glyph glyph-name="lozenge" unicode="&#x25ca;" horiz-adv-x="626" 
d="M317 -105h-8c-22 0 -41 11 -51 28l-210 345c-5 9 -8 19 -8 31s3 22 8 31l210 345c10 17 29 28 51 28h8c22 0 41 -11 51 -28l210 -345c5 -9 8 -19 8 -31s-3 -22 -8 -31l-210 -345c-10 -17 -29 -28 -51 -28zM313 -29l195 328l-195 328l-195 -328z" />
    <glyph glyph-name="s_t" unicode="&#xfb06;" horiz-adv-x="842" 
d="M786 79c18 0 36 -15 36 -36c0 -17 -9 -28 -23 -35c-24 -11 -51 -18 -83 -18c-47 0 -146 8 -146 132v310h-61c-22 0 -39 17 -39 39s17 39 39 39h61v84c0 53 -26 113 -113 113c-61 0 -112 -40 -112 -113c0 -51 24 -83 56 -103c13 -8 20 -22 20 -34c0 -21 -17 -40 -40 -40
c-5 0 -9 1 -13 2c-32 10 -70 18 -114 18c-74 0 -115 -30 -115 -70c0 -104 301 -33 301 -229c0 -81 -65 -148 -193 -148c-73 0 -131 17 -182 45c-10 7 -17 19 -17 33c0 20 16 40 39 40c6 0 11 -1 18 -4c36 -16 77 -30 136 -30c77 0 111 26 111 71c0 86 -300 35 -300 217
c0 90 65 158 195 158c27 0 52 -3 76 -7c-16 23 -26 52 -26 88c0 99 65 173 182 173c118 0 182 -90 182 -190v-74h113c22 0 39 -17 39 -39s-17 -39 -39 -39h-113v-302c0 -59 40 -60 65 -60c32 0 43 9 60 9z" />
    </font>
</defs>
</svg>
